<svg id="Layer_1" width="58px" height="58px" data-name="Layer 1" xmlns="http://www.w3.org/2000/svg" viewBox="0 0 58 58"><defs><style>.cls-1{fill:#fff;}</style></defs><title>drag</title><circle cx="29" cy="29" r="29"/><path class="cls-1" d="M462.42,276.38a14.53,14.53,0,0,1,2.19-.17,4.53,4.53,0,0,1,3.23,1,3.75,3.75,0,0,1,1.13,2.9,4.3,4.3,0,0,1-1.15,3.14,4.87,4.87,0,0,1-3.53,1.16,16.51,16.51,0,0,1-1.87-.1Zm1,7.15a6.32,6.32,0,0,0,1,.06,3.09,3.09,0,0,0,3.4-3.43c0-1.91-1.05-3.12-3.23-3.12a5.78,5.78,0,0,0-1.21.11Z" transform="translate(-450.82 -251.8)"/><path class="cls-1" d="M472.2,276.38a10.61,10.61,0,0,1,2-.17,3.24,3.24,0,0,1,2.31.66,2,2,0,0,1,.63,1.54,2.12,2.12,0,0,1-1.5,2.06v0a2,2,0,0,1,1.17,1.63,13.14,13.14,0,0,0,.62,2.22h-1.07a10.67,10.67,0,0,1-.53-1.93c-.24-1.12-.66-1.53-1.6-1.57h-1v3.5h-1Zm1,3.68h1.05c1.1,0,1.8-.61,1.8-1.54s-.75-1.5-1.84-1.51a4.2,4.2,0,0,0-1,.1Z" transform="translate(-450.82 -251.8)"/><path class="cls-1" d="M481.81,281.82l-.83,2.54h-1.07l2.71-8.08h1.24l2.72,8.08h-1.1l-.85-2.54Zm2.62-.81-.78-2.33c-.18-.53-.3-1-.42-1.48h0c-.12.48-.25,1-.4,1.46L482,281Z" transform="translate(-450.82 -251.8)"/><path class="cls-1" d="M495.55,284a7.36,7.36,0,0,1-2.45.44,4.07,4.07,0,0,1-3-1.07,4.19,4.19,0,0,1-1.11-3,4,4,0,0,1,4.32-4.17,4.88,4.88,0,0,1,2,.37l-.25.85a4.09,4.09,0,0,0-1.76-.35,3,3,0,0,0-3.21,3.25,3,3,0,0,0,3.08,3.26,3.3,3.3,0,0,0,1.37-.22V281h-1.62v-.84h2.63Z" transform="translate(-450.82 -251.8)"/></svg>