<svg width="23" height="20" viewBox="0 0 23 20" fill="none" xmlns="http://www.w3.org/2000/svg">
<path d="M20.2913 2.59133C19.7805 2.08683 19.1741 1.68663 18.5066 1.41358C17.8392 1.14054 17.1238 1 16.4013 1C15.6788 1 14.9634 1.14054 14.2959 1.41358C13.6285 1.68663 13.022 2.08683 12.5113 2.59133L11.4513 3.63785L10.3913 2.59133C9.3596 1.57276 7.96032 1.00053 6.50129 1.00053C5.04226 1.00053 3.64298 1.57276 2.61129 2.59133C1.5796 3.6099 1 4.99139 1 6.43187C1 7.87235 1.5796 9.25383 2.61129 10.2724L3.67129 11.3189L11.4513 19L19.2313 11.3189L20.2913 10.2724C20.8023 9.76814 21.2076 9.16942 21.4842 8.51045C21.7608 7.85148 21.9031 7.14517 21.9031 6.43187C21.9031 5.71857 21.7608 5.01225 21.4842 4.35328C21.2076 3.69431 20.8023 3.09559 20.2913 2.59133V2.59133Z" stroke="white" stroke-width="2" stroke-linecap="round" stroke-linejoin="round"/>
</svg>
