<svg width="599" height="120" viewBox="0 0 599 120" fill="none" xmlns="http://www.w3.org/2000/svg">
<path d="M10.0252 20.4502C15.6088 20.4502 20.1773 15.8199 20.1773 10.2894C20.1773 4.75884 15.6088 0 10.0252 0C4.56844 0 0 4.75884 0 10.2894C0 15.8199 4.56844 20.4502 10.0252 20.4502ZM1.90352 92.4759H18.2738V28.1672H1.90352V92.4759Z" fill="white"/>
<path d="M69.5507 44.1158V28.1672H55.2109V10.1608L38.8407 15.1769V28.1672H27.8003V44.1158H38.8407V70.8682C38.8407 88.2315 46.5816 95.0482 69.5507 92.4759V77.4277C60.16 77.9421 55.2109 77.8135 55.2109 70.8682V44.1158H69.5507Z" fill="white"/>
<path d="M94.8308 46.4309C94.8308 42.9582 98.1302 41.1576 102.191 41.1576C106.886 41.1576 110.44 43.6013 112.343 47.717L126.302 40C121.353 31.1254 112.47 26.3666 102.191 26.3666C89.1203 26.3666 78.0799 33.6978 78.0799 46.8167C78.0799 69.4534 110.82 64.3087 110.82 73.6977C110.82 77.4277 107.267 79.2283 102.064 79.2283C95.7191 79.2283 91.4045 76.1415 89.6279 70.8682L75.4149 78.9711C79.9834 88.8746 89.3741 94.2765 102.064 94.2765C115.643 94.2765 127.571 87.5884 127.571 73.6977C127.571 50.0322 94.8308 55.9486 94.8308 46.4309Z" fill="white"/>
<path d="M146.873 94.1479C152.838 94.1479 157.66 89.2605 157.66 83.2154C157.66 77.1704 152.838 72.283 146.873 72.283C140.909 72.283 136.087 77.1704 136.087 83.2154C136.087 89.2605 140.909 94.1479 146.873 94.1479Z" fill="white"/>
<path d="M214.453 28.1672V35.7556C209.885 29.9678 203.032 26.3666 193.768 26.3666C176.89 26.3666 162.931 41.1576 162.931 60.3215C162.931 79.4855 176.89 94.2765 193.768 94.2765C203.032 94.2765 209.885 90.6752 214.453 84.8875V92.4759H230.823V28.1672H214.453ZM196.814 78.4566C186.789 78.4566 179.301 71.1254 179.301 60.3215C179.301 49.5177 186.789 42.1865 196.814 42.1865C206.966 42.1865 214.453 49.5177 214.453 60.3215C214.453 71.1254 206.966 78.4566 196.814 78.4566Z" fill="white"/>
<path d="M294.271 28.1672V36.1415C289.829 30.0965 282.977 26.3666 273.967 26.3666C255.947 26.3666 242.368 41.2862 242.368 59.2926C242.368 77.4277 255.947 92.2187 273.967 92.2187C282.977 92.2187 289.829 88.4887 294.271 82.4437V89.3891C294.271 99.5498 287.926 105.209 277.647 105.209C267.875 105.209 263.688 101.222 261.023 96.2058L247.064 104.309C252.647 114.727 263.561 120 277.139 120C293.89 120 310.26 110.482 310.26 89.3891V28.1672H294.271ZM276.505 76.9132C266.226 76.9132 258.738 69.582 258.738 59.2926C258.738 49.1318 266.226 41.8006 276.505 41.8006C286.784 41.8006 294.271 49.1318 294.271 59.2926C294.271 69.582 286.784 76.9132 276.505 76.9132Z" fill="white"/>
<path d="M338.937 67.1383H386.779C387.159 64.9518 387.413 62.7653 387.413 60.3215C387.413 41.4148 374.089 26.3666 355.307 26.3666C335.384 26.3666 321.805 41.1576 321.805 60.3215C321.805 79.4855 335.257 94.2765 356.576 94.2765C368.759 94.2765 378.276 89.2605 384.241 80.5145L371.043 72.7974C368.251 76.5273 363.175 79.2283 356.83 79.2283C348.201 79.2283 341.221 75.627 338.937 67.1383ZM338.683 54.2765C340.587 46.045 346.551 41.2862 355.307 41.2862C362.16 41.2862 369.013 45.0161 371.043 54.2765H338.683Z" fill="white"/>
<path d="M434.12 26.3666C425.617 26.3666 419.019 29.582 415.211 35.3698V28.1672H398.841V92.4759H415.211V57.7492C415.211 46.5595 421.176 41.8006 429.171 41.8006C436.531 41.8006 441.734 46.3022 441.734 55.0482V92.4759H458.104V52.9904C458.104 35.8842 447.571 26.3666 434.12 26.3666Z" fill="white"/>
<path d="M502.284 94.2765C514.721 94.2765 525.507 87.5884 530.964 77.5563L516.751 69.3248C514.213 74.5981 508.756 77.8135 502.158 77.8135C492.386 77.8135 485.153 70.4823 485.153 60.3215C485.153 50.0322 492.386 42.701 502.158 42.701C508.63 42.701 514.086 46.045 516.624 51.3183L530.71 42.9582C525.507 33.0547 514.721 26.3666 502.284 26.3666C482.996 26.3666 468.783 41.1576 468.783 60.3215C468.783 79.4855 482.996 94.2765 502.284 94.2765Z" fill="white"/>
<path d="M581.488 28.1672L567.402 71.3826L550.904 28.1672H533.011L559.026 90.418C555.981 99.0354 551.412 102.894 542.402 102.765V118.199C558.518 119.1 569.305 110.997 575.904 92.4759L599 28.1672H581.488Z" fill="white"/>
</svg>
