<svg width="773" height="229" viewBox="0 0 773 229" fill="none" xmlns="http://www.w3.org/2000/svg">
<mask id="path-1-outside-1" maskUnits="userSpaceOnUse" x="0.0400391" y="0" width="773" height="229" fill="black">
<rect fill="#C8C9B9" x="0.0400391" width="773" height="229"/>
<path d="M81.84 2V86H72L21.6 23.36V86H9.60004V2H19.44L69.84 64.64V2H81.84Z"/>
<path d="M162.783 54.56C162.783 55.44 162.703 56.6 162.543 58.04H110.943C111.663 63.64 114.103 68.16 118.263 71.6C122.503 74.96 127.743 76.64 133.983 76.64C141.583 76.64 147.703 74.08 152.343 68.96L158.703 76.4C155.823 79.76 152.223 82.32 147.903 84.08C143.663 85.84 138.903 86.72 133.623 86.72C126.903 86.72 120.943 85.36 115.743 82.64C110.543 79.84 106.503 75.96 103.623 71C100.823 66.04 99.4229 60.44 99.4229 54.2C99.4229 48.04 100.783 42.48 103.503 37.52C106.303 32.56 110.103 28.72 114.903 26C119.783 23.2 125.263 21.8 131.343 21.8C137.423 21.8 142.823 23.2 147.543 26C152.343 28.72 156.063 32.56 158.703 37.52C161.423 42.48 162.783 48.16 162.783 54.56ZM131.343 31.52C125.823 31.52 121.183 33.2 117.423 36.56C113.743 39.92 111.583 44.32 110.943 49.76H151.743C151.103 44.4 148.903 40.04 145.143 36.68C141.463 33.24 136.863 31.52 131.343 31.52Z"/>
<path d="M233.888 22.4L206.048 86H194.288L166.448 22.4H178.448L200.288 73.4L222.608 22.4H233.888Z"/>
<path d="M300.361 54.56C300.361 55.44 300.281 56.6 300.121 58.04H248.521C249.241 63.64 251.681 68.16 255.841 71.6C260.081 74.96 265.321 76.64 271.561 76.64C279.161 76.64 285.281 74.08 289.921 68.96L296.281 76.4C293.401 79.76 289.801 82.32 285.481 84.08C281.241 85.84 276.481 86.72 271.201 86.72C264.481 86.72 258.521 85.36 253.321 82.64C248.121 79.84 244.081 75.96 241.201 71C238.401 66.04 237.001 60.44 237.001 54.2C237.001 48.04 238.361 42.48 241.081 37.52C243.881 32.56 247.681 28.72 252.481 26C257.361 23.2 262.841 21.8 268.921 21.8C275.001 21.8 280.401 23.2 285.121 26C289.921 28.72 293.641 32.56 296.281 37.52C299.001 42.48 300.361 48.16 300.361 54.56ZM268.921 31.52C263.401 31.52 258.761 33.2 255.001 36.56C251.321 39.92 249.161 44.32 248.521 49.76H289.321C288.681 44.4 286.481 40.04 282.721 36.68C279.041 33.24 274.441 31.52 268.921 31.52Z"/>
<path d="M327.398 33.08C329.398 29.4 332.358 26.6 336.278 24.68C340.198 22.76 344.958 21.8 350.558 21.8V32.96C349.918 32.88 349.038 32.84 347.918 32.84C341.678 32.84 336.758 34.72 333.158 38.48C329.638 42.16 327.878 47.44 327.878 54.32V86H316.358V22.4H327.398V33.08Z"/>
<path d="M458.643 22.4V77.36C458.643 88.48 455.883 96.68 450.363 101.96C444.843 107.32 436.603 110 425.643 110C419.643 110 413.923 109.16 408.483 107.48C403.043 105.88 398.643 103.56 395.283 100.52L400.803 91.64C403.763 94.2 407.403 96.2 411.723 97.64C416.123 99.16 420.643 99.92 425.283 99.92C432.723 99.92 438.203 98.16 441.723 94.64C445.323 91.12 447.123 85.76 447.123 78.56V73.52C444.403 76.8 441.043 79.28 437.043 80.96C433.123 82.56 428.843 83.36 424.203 83.36C418.123 83.36 412.603 82.08 407.643 79.52C402.763 76.88 398.923 73.24 396.123 68.6C393.323 63.88 391.923 58.52 391.923 52.52C391.923 46.52 393.323 41.2 396.123 36.56C398.923 31.84 402.763 28.2 407.643 25.64C412.603 23.08 418.123 21.8 424.203 21.8C429.003 21.8 433.443 22.68 437.523 24.44C441.683 26.2 445.083 28.8 447.723 32.24V22.4H458.643ZM425.523 73.28C429.683 73.28 433.403 72.4 436.683 70.64C440.043 68.88 442.643 66.44 444.483 63.32C446.403 60.12 447.363 56.52 447.363 52.52C447.363 46.36 445.323 41.4 441.243 37.64C437.163 33.8 431.923 31.88 425.523 31.88C419.043 31.88 413.763 33.8 409.683 37.64C405.603 41.4 403.563 46.36 403.563 52.52C403.563 56.52 404.483 60.12 406.323 63.32C408.243 66.44 410.843 68.88 414.123 70.64C417.483 72.4 421.283 73.28 425.523 73.28Z"/>
<path d="M507.894 86.72C501.574 86.72 495.894 85.32 490.854 82.52C485.814 79.72 481.854 75.88 478.974 71C476.174 66.04 474.774 60.44 474.774 54.2C474.774 47.96 476.174 42.4 478.974 37.52C481.854 32.56 485.814 28.72 490.854 26C495.894 23.2 501.574 21.8 507.894 21.8C514.214 21.8 519.854 23.2 524.814 26C529.854 28.72 533.774 32.56 536.574 37.52C539.454 42.4 540.894 47.96 540.894 54.2C540.894 60.44 539.454 66.04 536.574 71C533.774 75.88 529.854 79.72 524.814 82.52C519.854 85.32 514.214 86.72 507.894 86.72ZM507.894 76.64C511.974 76.64 515.614 75.72 518.814 73.88C522.094 71.96 524.654 69.32 526.494 65.96C528.334 62.52 529.254 58.6 529.254 54.2C529.254 49.8 528.334 45.92 526.494 42.56C524.654 39.12 522.094 36.48 518.814 34.64C515.614 32.8 511.974 31.88 507.894 31.88C503.814 31.88 500.134 32.8 496.854 34.64C493.654 36.48 491.094 39.12 489.174 42.56C487.334 45.92 486.414 49.8 486.414 54.2C486.414 58.6 487.334 62.52 489.174 65.96C491.094 69.32 493.654 71.96 496.854 73.88C500.134 75.72 503.814 76.64 507.894 76.64Z"/>
<path d="M590.786 21.8C598.866 21.8 605.266 24.16 609.986 28.88C614.786 33.52 617.186 40.36 617.186 49.4V86H605.666V50.72C605.666 44.56 604.186 39.92 601.226 36.8C598.266 33.68 594.026 32.12 588.506 32.12C582.266 32.12 577.346 33.96 573.746 37.64C570.146 41.24 568.346 46.44 568.346 53.24V86H556.826V22.4H567.866V32C570.186 28.72 573.306 26.2 577.226 24.44C581.226 22.68 585.746 21.8 590.786 21.8Z"/>
<path d="M672.466 21.8C680.546 21.8 686.946 24.16 691.666 28.88C696.466 33.52 698.866 40.36 698.866 49.4V86H687.346V50.72C687.346 44.56 685.866 39.92 682.906 36.8C679.946 33.68 675.706 32.12 670.186 32.12C663.946 32.12 659.026 33.96 655.426 37.64C651.826 41.24 650.026 46.44 650.026 53.24V86H638.506V22.4H649.546V32C651.866 28.72 654.986 26.2 658.906 24.44C662.906 22.68 667.426 21.8 672.466 21.8Z"/>
<path d="M743.346 21.8C752.146 21.8 758.866 23.96 763.506 28.28C768.226 32.6 770.586 39.04 770.586 47.6V86H759.666V77.6C757.746 80.56 754.986 82.84 751.386 84.44C747.866 85.96 743.666 86.72 738.786 86.72C731.666 86.72 725.946 85 721.626 81.56C717.386 78.12 715.266 73.6 715.266 68C715.266 62.4 717.306 57.92 721.386 54.56C725.466 51.12 731.946 49.4 740.826 49.4H759.066V47.12C759.066 42.16 757.626 38.36 754.746 35.72C751.866 33.08 747.626 31.76 742.026 31.76C738.266 31.76 734.586 32.4 730.986 33.68C727.386 34.88 724.346 36.52 721.866 38.6L717.066 29.96C720.346 27.32 724.266 25.32 728.826 23.96C733.386 22.52 738.226 21.8 743.346 21.8ZM740.706 77.84C745.106 77.84 748.906 76.88 752.106 74.96C755.306 72.96 757.626 70.16 759.066 66.56V57.68H741.306C731.546 57.68 726.666 60.96 726.666 67.52C726.666 70.72 727.906 73.24 730.386 75.08C732.866 76.92 736.306 77.84 740.706 77.84Z"/>
<path d="M68.76 139.4V194.36C68.76 205.48 66 213.68 60.48 218.96C54.96 224.32 46.72 227 35.76 227C29.76 227 24.04 226.16 18.6 224.48C13.16 222.88 8.76004 220.56 5.40004 217.52L10.92 208.64C13.88 211.2 17.52 213.2 21.84 214.64C26.24 216.16 30.76 216.92 35.4 216.92C42.84 216.92 48.32 215.16 51.84 211.64C55.44 208.12 57.24 202.76 57.24 195.56V190.52C54.52 193.8 51.16 196.28 47.16 197.96C43.24 199.56 38.96 200.36 34.32 200.36C28.24 200.36 22.72 199.08 17.76 196.52C12.88 193.88 9.04004 190.24 6.24004 185.6C3.44004 180.88 2.04004 175.52 2.04004 169.52C2.04004 163.52 3.44004 158.2 6.24004 153.56C9.04004 148.84 12.88 145.2 17.76 142.64C22.72 140.08 28.24 138.8 34.32 138.8C39.12 138.8 43.56 139.68 47.64 141.44C51.8 143.2 55.2 145.8 57.84 149.24V139.4H68.76ZM35.64 190.28C39.8 190.28 43.52 189.4 46.8 187.64C50.16 185.88 52.76 183.44 54.6 180.32C56.52 177.12 57.48 173.52 57.48 169.52C57.48 163.36 55.44 158.4 51.36 154.64C47.28 150.8 42.04 148.88 35.64 148.88C29.16 148.88 23.88 150.8 19.8 154.64C15.72 158.4 13.68 163.36 13.68 169.52C13.68 173.52 14.6 177.12 16.44 180.32C18.36 183.44 20.96 185.88 24.24 187.64C27.6 189.4 31.4 190.28 35.64 190.28Z"/>
<path d="M90.7716 139.4H102.292V203H90.7716V139.4ZM96.5316 127.16C94.2916 127.16 92.4116 126.44 90.8916 125C89.4516 123.56 88.7316 121.8 88.7316 119.72C88.7316 117.64 89.4516 115.88 90.8916 114.44C92.4116 112.92 94.2916 112.16 96.5316 112.16C98.7716 112.16 100.612 112.88 102.052 114.32C103.572 115.68 104.332 117.4 104.332 119.48C104.332 121.64 103.572 123.48 102.052 125C100.612 126.44 98.7716 127.16 96.5316 127.16Z"/>
<path d="M180.567 139.4L152.727 203H140.967L113.127 139.4H125.127L146.967 190.4L169.287 139.4H180.567Z"/>
<path d="M247.041 171.56C247.041 172.44 246.961 173.6 246.801 175.04H195.201C195.921 180.64 198.361 185.16 202.521 188.6C206.761 191.96 212.001 193.64 218.241 193.64C225.841 193.64 231.961 191.08 236.601 185.96L242.961 193.4C240.081 196.76 236.481 199.32 232.161 201.08C227.921 202.84 223.161 203.72 217.881 203.72C211.161 203.72 205.201 202.36 200.001 199.64C194.801 196.84 190.761 192.96 187.881 188C185.081 183.04 183.681 177.44 183.681 171.2C183.681 165.04 185.041 159.48 187.761 154.52C190.561 149.56 194.361 145.72 199.161 143C204.041 140.2 209.521 138.8 215.601 138.8C221.681 138.8 227.081 140.2 231.801 143C236.601 145.72 240.321 149.56 242.961 154.52C245.681 159.48 247.041 165.16 247.041 171.56ZM215.601 148.52C210.081 148.52 205.441 150.2 201.681 153.56C198.001 156.92 195.841 161.32 195.201 166.76H236.001C235.361 161.4 233.161 157.04 229.401 153.68C225.721 150.24 221.121 148.52 215.601 148.52Z"/>
<path d="M351.544 139.4L320.704 209.36C317.984 215.84 314.784 220.4 311.104 223.04C307.504 225.68 303.144 227 298.024 227C294.904 227 291.864 226.48 288.904 225.44C286.024 224.48 283.624 223.04 281.704 221.12L286.624 212.48C289.904 215.6 293.704 217.16 298.024 217.16C300.824 217.16 303.144 216.4 304.984 214.88C306.904 213.44 308.624 210.92 310.144 207.32L312.184 202.88L284.104 139.4H296.104L318.304 190.28L340.264 139.4H351.544Z"/>
<path d="M387.777 203.72C381.457 203.72 375.777 202.32 370.737 199.52C365.697 196.72 361.737 192.88 358.857 188C356.057 183.04 354.657 177.44 354.657 171.2C354.657 164.96 356.057 159.4 358.857 154.52C361.737 149.56 365.697 145.72 370.737 143C375.777 140.2 381.457 138.8 387.777 138.8C394.097 138.8 399.737 140.2 404.697 143C409.737 145.72 413.657 149.56 416.457 154.52C419.337 159.4 420.777 164.96 420.777 171.2C420.777 177.44 419.337 183.04 416.457 188C413.657 192.88 409.737 196.72 404.697 199.52C399.737 202.32 394.097 203.72 387.777 203.72ZM387.777 193.64C391.857 193.64 395.497 192.72 398.697 190.88C401.977 188.96 404.537 186.32 406.377 182.96C408.217 179.52 409.137 175.6 409.137 171.2C409.137 166.8 408.217 162.92 406.377 159.56C404.537 156.12 401.977 153.48 398.697 151.64C395.497 149.8 391.857 148.88 387.777 148.88C383.697 148.88 380.017 149.8 376.737 151.64C373.537 153.48 370.977 156.12 369.057 159.56C367.217 162.92 366.297 166.8 366.297 171.2C366.297 175.6 367.217 179.52 369.057 182.96C370.977 186.32 373.537 188.96 376.737 190.88C380.017 192.72 383.697 193.64 387.777 193.64Z"/>
<path d="M495.989 139.4V203H485.069V193.4C482.749 196.68 479.669 199.24 475.829 201.08C472.069 202.84 467.949 203.72 463.469 203.72C454.989 203.72 448.309 201.4 443.429 196.76C438.549 192.04 436.109 185.12 436.109 176V139.4H447.629V174.68C447.629 180.84 449.109 185.52 452.069 188.72C455.029 191.84 459.269 193.4 464.789 193.4C470.869 193.4 475.669 191.56 479.189 187.88C482.709 184.2 484.469 179 484.469 172.28V139.4H495.989Z"/>
<path d="M609.427 139.4V203H598.507V193.4C596.187 196.68 593.107 199.24 589.267 201.08C585.507 202.84 581.387 203.72 576.907 203.72C568.427 203.72 561.747 201.4 556.867 196.76C551.987 192.04 549.547 185.12 549.547 176V139.4H561.067V174.68C561.067 180.84 562.547 185.52 565.507 188.72C568.467 191.84 572.707 193.4 578.227 193.4C584.307 193.4 589.107 191.56 592.627 187.88C596.147 184.2 597.907 179 597.907 172.28V139.4H609.427Z"/>
<path d="M665.078 138.8C671.238 138.8 676.758 140.16 681.638 142.88C686.518 145.6 690.318 149.4 693.038 154.28C695.838 159.16 697.238 164.8 697.238 171.2C697.238 177.6 695.838 183.28 693.038 188.24C690.318 193.12 686.518 196.92 681.638 199.64C676.758 202.36 671.238 203.72 665.078 203.72C660.518 203.72 656.318 202.84 652.478 201.08C648.718 199.32 645.518 196.76 642.878 193.4V226.28H631.358V139.4H642.398V149.48C644.958 145.96 648.198 143.32 652.118 141.56C656.038 139.72 660.358 138.8 665.078 138.8ZM664.118 193.64C668.198 193.64 671.838 192.72 675.038 190.88C678.318 188.96 680.878 186.32 682.718 182.96C684.638 179.52 685.598 175.6 685.598 171.2C685.598 166.8 684.638 162.92 682.718 159.56C680.878 156.12 678.318 153.48 675.038 151.64C671.838 149.8 668.198 148.88 664.118 148.88C660.118 148.88 656.478 149.84 653.198 151.76C649.998 153.6 647.438 156.2 645.518 159.56C643.678 162.92 642.758 166.8 642.758 171.2C642.758 175.6 643.678 179.52 645.518 182.96C647.358 186.32 649.918 188.96 653.198 190.88C656.478 192.72 660.118 193.64 664.118 193.64Z"/>
</mask>
<path d="M81.84 2V86H72L21.6 23.36V86H9.60004V2H19.44L69.84 64.64V2H81.84Z" fill="#161616"/>
<path d="M162.783 54.56C162.783 55.44 162.703 56.6 162.543 58.04H110.943C111.663 63.64 114.103 68.16 118.263 71.6C122.503 74.96 127.743 76.64 133.983 76.64C141.583 76.64 147.703 74.08 152.343 68.96L158.703 76.4C155.823 79.76 152.223 82.32 147.903 84.08C143.663 85.84 138.903 86.72 133.623 86.72C126.903 86.72 120.943 85.36 115.743 82.64C110.543 79.84 106.503 75.96 103.623 71C100.823 66.04 99.4229 60.44 99.4229 54.2C99.4229 48.04 100.783 42.48 103.503 37.52C106.303 32.56 110.103 28.72 114.903 26C119.783 23.2 125.263 21.8 131.343 21.8C137.423 21.8 142.823 23.2 147.543 26C152.343 28.72 156.063 32.56 158.703 37.52C161.423 42.48 162.783 48.16 162.783 54.56ZM131.343 31.52C125.823 31.52 121.183 33.2 117.423 36.56C113.743 39.92 111.583 44.32 110.943 49.76H151.743C151.103 44.4 148.903 40.04 145.143 36.68C141.463 33.24 136.863 31.52 131.343 31.52Z" fill="#161616"/>
<path d="M233.888 22.4L206.048 86H194.288L166.448 22.4H178.448L200.288 73.4L222.608 22.4H233.888Z" fill="#161616"/>
<path d="M300.361 54.56C300.361 55.44 300.281 56.6 300.121 58.04H248.521C249.241 63.64 251.681 68.16 255.841 71.6C260.081 74.96 265.321 76.64 271.561 76.64C279.161 76.64 285.281 74.08 289.921 68.96L296.281 76.4C293.401 79.76 289.801 82.32 285.481 84.08C281.241 85.84 276.481 86.72 271.201 86.72C264.481 86.72 258.521 85.36 253.321 82.64C248.121 79.84 244.081 75.96 241.201 71C238.401 66.04 237.001 60.44 237.001 54.2C237.001 48.04 238.361 42.48 241.081 37.52C243.881 32.56 247.681 28.72 252.481 26C257.361 23.2 262.841 21.8 268.921 21.8C275.001 21.8 280.401 23.2 285.121 26C289.921 28.72 293.641 32.56 296.281 37.52C299.001 42.48 300.361 48.16 300.361 54.56ZM268.921 31.52C263.401 31.52 258.761 33.2 255.001 36.56C251.321 39.92 249.161 44.32 248.521 49.76H289.321C288.681 44.4 286.481 40.04 282.721 36.68C279.041 33.24 274.441 31.52 268.921 31.52Z" fill="#161616"/>
<path d="M327.398 33.08C329.398 29.4 332.358 26.6 336.278 24.68C340.198 22.76 344.958 21.8 350.558 21.8V32.96C349.918 32.88 349.038 32.84 347.918 32.84C341.678 32.84 336.758 34.72 333.158 38.48C329.638 42.16 327.878 47.44 327.878 54.32V86H316.358V22.4H327.398V33.08Z" fill="#161616"/>
<path d="M458.643 22.4V77.36C458.643 88.48 455.883 96.68 450.363 101.96C444.843 107.32 436.603 110 425.643 110C419.643 110 413.923 109.16 408.483 107.48C403.043 105.88 398.643 103.56 395.283 100.52L400.803 91.64C403.763 94.2 407.403 96.2 411.723 97.64C416.123 99.16 420.643 99.92 425.283 99.92C432.723 99.92 438.203 98.16 441.723 94.64C445.323 91.12 447.123 85.76 447.123 78.56V73.52C444.403 76.8 441.043 79.28 437.043 80.96C433.123 82.56 428.843 83.36 424.203 83.36C418.123 83.36 412.603 82.08 407.643 79.52C402.763 76.88 398.923 73.24 396.123 68.6C393.323 63.88 391.923 58.52 391.923 52.52C391.923 46.52 393.323 41.2 396.123 36.56C398.923 31.84 402.763 28.2 407.643 25.64C412.603 23.08 418.123 21.8 424.203 21.8C429.003 21.8 433.443 22.68 437.523 24.44C441.683 26.2 445.083 28.8 447.723 32.24V22.4H458.643ZM425.523 73.28C429.683 73.28 433.403 72.4 436.683 70.64C440.043 68.88 442.643 66.44 444.483 63.32C446.403 60.12 447.363 56.52 447.363 52.52C447.363 46.36 445.323 41.4 441.243 37.64C437.163 33.8 431.923 31.88 425.523 31.88C419.043 31.88 413.763 33.8 409.683 37.64C405.603 41.4 403.563 46.36 403.563 52.52C403.563 56.52 404.483 60.12 406.323 63.32C408.243 66.44 410.843 68.88 414.123 70.64C417.483 72.4 421.283 73.28 425.523 73.28Z" fill="#161616"/>
<path d="M507.894 86.72C501.574 86.72 495.894 85.32 490.854 82.52C485.814 79.72 481.854 75.88 478.974 71C476.174 66.04 474.774 60.44 474.774 54.2C474.774 47.96 476.174 42.4 478.974 37.52C481.854 32.56 485.814 28.72 490.854 26C495.894 23.2 501.574 21.8 507.894 21.8C514.214 21.8 519.854 23.2 524.814 26C529.854 28.72 533.774 32.56 536.574 37.52C539.454 42.4 540.894 47.96 540.894 54.2C540.894 60.44 539.454 66.04 536.574 71C533.774 75.88 529.854 79.72 524.814 82.52C519.854 85.32 514.214 86.72 507.894 86.72ZM507.894 76.64C511.974 76.64 515.614 75.72 518.814 73.88C522.094 71.96 524.654 69.32 526.494 65.96C528.334 62.52 529.254 58.6 529.254 54.2C529.254 49.8 528.334 45.92 526.494 42.56C524.654 39.12 522.094 36.48 518.814 34.64C515.614 32.8 511.974 31.88 507.894 31.88C503.814 31.88 500.134 32.8 496.854 34.64C493.654 36.48 491.094 39.12 489.174 42.56C487.334 45.92 486.414 49.8 486.414 54.2C486.414 58.6 487.334 62.52 489.174 65.96C491.094 69.32 493.654 71.96 496.854 73.88C500.134 75.72 503.814 76.64 507.894 76.64Z" fill="#161616"/>
<path d="M590.786 21.8C598.866 21.8 605.266 24.16 609.986 28.88C614.786 33.52 617.186 40.36 617.186 49.4V86H605.666V50.72C605.666 44.56 604.186 39.92 601.226 36.8C598.266 33.68 594.026 32.12 588.506 32.12C582.266 32.12 577.346 33.96 573.746 37.64C570.146 41.24 568.346 46.44 568.346 53.24V86H556.826V22.4H567.866V32C570.186 28.72 573.306 26.2 577.226 24.44C581.226 22.68 585.746 21.8 590.786 21.8Z" fill="#161616"/>
<path d="M672.466 21.8C680.546 21.8 686.946 24.16 691.666 28.88C696.466 33.52 698.866 40.36 698.866 49.4V86H687.346V50.72C687.346 44.56 685.866 39.92 682.906 36.8C679.946 33.68 675.706 32.12 670.186 32.12C663.946 32.12 659.026 33.96 655.426 37.64C651.826 41.24 650.026 46.44 650.026 53.24V86H638.506V22.4H649.546V32C651.866 28.72 654.986 26.2 658.906 24.44C662.906 22.68 667.426 21.8 672.466 21.8Z" fill="#161616"/>
<path d="M743.346 21.8C752.146 21.8 758.866 23.96 763.506 28.28C768.226 32.6 770.586 39.04 770.586 47.6V86H759.666V77.6C757.746 80.56 754.986 82.84 751.386 84.44C747.866 85.96 743.666 86.72 738.786 86.72C731.666 86.72 725.946 85 721.626 81.56C717.386 78.12 715.266 73.6 715.266 68C715.266 62.4 717.306 57.92 721.386 54.56C725.466 51.12 731.946 49.4 740.826 49.4H759.066V47.12C759.066 42.16 757.626 38.36 754.746 35.72C751.866 33.08 747.626 31.76 742.026 31.76C738.266 31.76 734.586 32.4 730.986 33.68C727.386 34.88 724.346 36.52 721.866 38.6L717.066 29.96C720.346 27.32 724.266 25.32 728.826 23.96C733.386 22.52 738.226 21.8 743.346 21.8ZM740.706 77.84C745.106 77.84 748.906 76.88 752.106 74.96C755.306 72.96 757.626 70.16 759.066 66.56V57.68H741.306C731.546 57.68 726.666 60.96 726.666 67.52C726.666 70.72 727.906 73.24 730.386 75.08C732.866 76.92 736.306 77.84 740.706 77.84Z" fill="#161616"/>
<path d="M68.76 139.4V194.36C68.76 205.48 66 213.68 60.48 218.96C54.96 224.32 46.72 227 35.76 227C29.76 227 24.04 226.16 18.6 224.48C13.16 222.88 8.76004 220.56 5.40004 217.52L10.92 208.64C13.88 211.2 17.52 213.2 21.84 214.64C26.24 216.16 30.76 216.92 35.4 216.92C42.84 216.92 48.32 215.16 51.84 211.64C55.44 208.12 57.24 202.76 57.24 195.56V190.52C54.52 193.8 51.16 196.28 47.16 197.96C43.24 199.56 38.96 200.36 34.32 200.36C28.24 200.36 22.72 199.08 17.76 196.52C12.88 193.88 9.04004 190.24 6.24004 185.6C3.44004 180.88 2.04004 175.52 2.04004 169.52C2.04004 163.52 3.44004 158.2 6.24004 153.56C9.04004 148.84 12.88 145.2 17.76 142.64C22.72 140.08 28.24 138.8 34.32 138.8C39.12 138.8 43.56 139.68 47.64 141.44C51.8 143.2 55.2 145.8 57.84 149.24V139.4H68.76ZM35.64 190.28C39.8 190.28 43.52 189.4 46.8 187.64C50.16 185.88 52.76 183.44 54.6 180.32C56.52 177.12 57.48 173.52 57.48 169.52C57.48 163.36 55.44 158.4 51.36 154.64C47.28 150.8 42.04 148.88 35.64 148.88C29.16 148.88 23.88 150.8 19.8 154.64C15.72 158.4 13.68 163.36 13.68 169.52C13.68 173.52 14.6 177.12 16.44 180.32C18.36 183.44 20.96 185.88 24.24 187.64C27.6 189.4 31.4 190.28 35.64 190.28Z" fill="#161616"/>
<path d="M90.7716 139.4H102.292V203H90.7716V139.4ZM96.5316 127.16C94.2916 127.16 92.4116 126.44 90.8916 125C89.4516 123.56 88.7316 121.8 88.7316 119.72C88.7316 117.64 89.4516 115.88 90.8916 114.44C92.4116 112.92 94.2916 112.16 96.5316 112.16C98.7716 112.16 100.612 112.88 102.052 114.32C103.572 115.68 104.332 117.4 104.332 119.48C104.332 121.64 103.572 123.48 102.052 125C100.612 126.44 98.7716 127.16 96.5316 127.16Z" fill="#161616"/>
<path d="M180.567 139.4L152.727 203H140.967L113.127 139.4H125.127L146.967 190.4L169.287 139.4H180.567Z" fill="#161616"/>
<path d="M247.041 171.56C247.041 172.44 246.961 173.6 246.801 175.04H195.201C195.921 180.64 198.361 185.16 202.521 188.6C206.761 191.96 212.001 193.64 218.241 193.64C225.841 193.64 231.961 191.08 236.601 185.96L242.961 193.4C240.081 196.76 236.481 199.32 232.161 201.08C227.921 202.84 223.161 203.72 217.881 203.72C211.161 203.72 205.201 202.36 200.001 199.64C194.801 196.84 190.761 192.96 187.881 188C185.081 183.04 183.681 177.44 183.681 171.2C183.681 165.04 185.041 159.48 187.761 154.52C190.561 149.56 194.361 145.72 199.161 143C204.041 140.2 209.521 138.8 215.601 138.8C221.681 138.8 227.081 140.2 231.801 143C236.601 145.72 240.321 149.56 242.961 154.52C245.681 159.48 247.041 165.16 247.041 171.56ZM215.601 148.52C210.081 148.52 205.441 150.2 201.681 153.56C198.001 156.92 195.841 161.32 195.201 166.76H236.001C235.361 161.4 233.161 157.04 229.401 153.68C225.721 150.24 221.121 148.52 215.601 148.52Z" fill="#161616"/>
<path d="M351.544 139.4L320.704 209.36C317.984 215.84 314.784 220.4 311.104 223.04C307.504 225.68 303.144 227 298.024 227C294.904 227 291.864 226.48 288.904 225.44C286.024 224.48 283.624 223.04 281.704 221.12L286.624 212.48C289.904 215.6 293.704 217.16 298.024 217.16C300.824 217.16 303.144 216.4 304.984 214.88C306.904 213.44 308.624 210.92 310.144 207.32L312.184 202.88L284.104 139.4H296.104L318.304 190.28L340.264 139.4H351.544Z" fill="#161616"/>
<path d="M387.777 203.72C381.457 203.72 375.777 202.32 370.737 199.52C365.697 196.72 361.737 192.88 358.857 188C356.057 183.04 354.657 177.44 354.657 171.2C354.657 164.96 356.057 159.4 358.857 154.52C361.737 149.56 365.697 145.72 370.737 143C375.777 140.2 381.457 138.8 387.777 138.8C394.097 138.8 399.737 140.2 404.697 143C409.737 145.72 413.657 149.56 416.457 154.52C419.337 159.4 420.777 164.96 420.777 171.2C420.777 177.44 419.337 183.04 416.457 188C413.657 192.88 409.737 196.72 404.697 199.52C399.737 202.32 394.097 203.72 387.777 203.72ZM387.777 193.64C391.857 193.64 395.497 192.72 398.697 190.88C401.977 188.96 404.537 186.32 406.377 182.96C408.217 179.52 409.137 175.6 409.137 171.2C409.137 166.8 408.217 162.92 406.377 159.56C404.537 156.12 401.977 153.48 398.697 151.64C395.497 149.8 391.857 148.88 387.777 148.88C383.697 148.88 380.017 149.8 376.737 151.64C373.537 153.48 370.977 156.12 369.057 159.56C367.217 162.92 366.297 166.8 366.297 171.2C366.297 175.6 367.217 179.52 369.057 182.96C370.977 186.32 373.537 188.96 376.737 190.88C380.017 192.72 383.697 193.64 387.777 193.64Z" fill="#161616"/>
<path d="M495.989 139.4V203H485.069V193.4C482.749 196.68 479.669 199.24 475.829 201.08C472.069 202.84 467.949 203.72 463.469 203.72C454.989 203.72 448.309 201.4 443.429 196.76C438.549 192.04 436.109 185.12 436.109 176V139.4H447.629V174.68C447.629 180.84 449.109 185.52 452.069 188.72C455.029 191.84 459.269 193.4 464.789 193.4C470.869 193.4 475.669 191.56 479.189 187.88C482.709 184.2 484.469 179 484.469 172.28V139.4H495.989Z" fill="#161616"/>
<path d="M609.427 139.4V203H598.507V193.4C596.187 196.68 593.107 199.24 589.267 201.08C585.507 202.84 581.387 203.72 576.907 203.72C568.427 203.72 561.747 201.4 556.867 196.76C551.987 192.04 549.547 185.12 549.547 176V139.4H561.067V174.68C561.067 180.84 562.547 185.52 565.507 188.72C568.467 191.84 572.707 193.4 578.227 193.4C584.307 193.4 589.107 191.56 592.627 187.88C596.147 184.2 597.907 179 597.907 172.28V139.4H609.427Z" fill="#161616"/>
<path d="M665.078 138.8C671.238 138.8 676.758 140.16 681.638 142.88C686.518 145.6 690.318 149.4 693.038 154.28C695.838 159.16 697.238 164.8 697.238 171.2C697.238 177.6 695.838 183.28 693.038 188.24C690.318 193.12 686.518 196.92 681.638 199.64C676.758 202.36 671.238 203.72 665.078 203.72C660.518 203.72 656.318 202.84 652.478 201.08C648.718 199.32 645.518 196.76 642.878 193.4V226.28H631.358V139.4H642.398V149.48C644.958 145.96 648.198 143.32 652.118 141.56C656.038 139.72 660.358 138.8 665.078 138.8ZM664.118 193.64C668.198 193.64 671.838 192.72 675.038 190.88C678.318 188.96 680.878 186.32 682.718 182.96C684.638 179.52 685.598 175.6 685.598 171.2C685.598 166.8 684.638 162.92 682.718 159.56C680.878 156.12 678.318 153.48 675.038 151.64C671.838 149.8 668.198 148.88 664.118 148.88C660.118 148.88 656.478 149.84 653.198 151.76C649.998 153.6 647.438 156.2 645.518 159.56C643.678 162.92 642.758 166.8 642.758 171.2C642.758 175.6 643.678 179.52 645.518 182.96C647.358 186.32 649.918 188.96 653.198 190.88C656.478 192.72 660.118 193.64 664.118 193.64Z" fill="#161616"/>
<path d="M81.84 2V86H72L21.6 23.36V86H9.60004V2H19.44L69.84 64.64V2H81.84Z" stroke="#C8C9B9" stroke-width="4" mask="url(#path-1-outside-1)"/>
<path d="M162.783 54.56C162.783 55.44 162.703 56.6 162.543 58.04H110.943C111.663 63.64 114.103 68.16 118.263 71.6C122.503 74.96 127.743 76.64 133.983 76.64C141.583 76.64 147.703 74.08 152.343 68.96L158.703 76.4C155.823 79.76 152.223 82.32 147.903 84.08C143.663 85.84 138.903 86.72 133.623 86.72C126.903 86.72 120.943 85.36 115.743 82.64C110.543 79.84 106.503 75.96 103.623 71C100.823 66.04 99.4229 60.44 99.4229 54.2C99.4229 48.04 100.783 42.48 103.503 37.52C106.303 32.56 110.103 28.72 114.903 26C119.783 23.2 125.263 21.8 131.343 21.8C137.423 21.8 142.823 23.2 147.543 26C152.343 28.72 156.063 32.56 158.703 37.52C161.423 42.48 162.783 48.16 162.783 54.56ZM131.343 31.52C125.823 31.52 121.183 33.2 117.423 36.56C113.743 39.92 111.583 44.32 110.943 49.76H151.743C151.103 44.4 148.903 40.04 145.143 36.68C141.463 33.24 136.863 31.52 131.343 31.52Z" stroke="#C8C9B9" stroke-width="4" mask="url(#path-1-outside-1)"/>
<path d="M233.888 22.4L206.048 86H194.288L166.448 22.4H178.448L200.288 73.4L222.608 22.4H233.888Z" stroke="#C8C9B9" stroke-width="4" mask="url(#path-1-outside-1)"/>
<path d="M300.361 54.56C300.361 55.44 300.281 56.6 300.121 58.04H248.521C249.241 63.64 251.681 68.16 255.841 71.6C260.081 74.96 265.321 76.64 271.561 76.64C279.161 76.64 285.281 74.08 289.921 68.96L296.281 76.4C293.401 79.76 289.801 82.32 285.481 84.08C281.241 85.84 276.481 86.72 271.201 86.72C264.481 86.72 258.521 85.36 253.321 82.64C248.121 79.84 244.081 75.96 241.201 71C238.401 66.04 237.001 60.44 237.001 54.2C237.001 48.04 238.361 42.48 241.081 37.52C243.881 32.56 247.681 28.72 252.481 26C257.361 23.2 262.841 21.8 268.921 21.8C275.001 21.8 280.401 23.2 285.121 26C289.921 28.72 293.641 32.56 296.281 37.52C299.001 42.48 300.361 48.16 300.361 54.56ZM268.921 31.52C263.401 31.52 258.761 33.2 255.001 36.56C251.321 39.92 249.161 44.32 248.521 49.76H289.321C288.681 44.4 286.481 40.04 282.721 36.68C279.041 33.24 274.441 31.52 268.921 31.52Z" stroke="#C8C9B9" stroke-width="4" mask="url(#path-1-outside-1)"/>
<path d="M327.398 33.08C329.398 29.4 332.358 26.6 336.278 24.68C340.198 22.76 344.958 21.8 350.558 21.8V32.96C349.918 32.88 349.038 32.84 347.918 32.84C341.678 32.84 336.758 34.72 333.158 38.48C329.638 42.16 327.878 47.44 327.878 54.32V86H316.358V22.4H327.398V33.08Z" stroke="#C8C9B9" stroke-width="4" mask="url(#path-1-outside-1)"/>
<path d="M458.643 22.4V77.36C458.643 88.48 455.883 96.68 450.363 101.96C444.843 107.32 436.603 110 425.643 110C419.643 110 413.923 109.16 408.483 107.48C403.043 105.88 398.643 103.56 395.283 100.52L400.803 91.64C403.763 94.2 407.403 96.2 411.723 97.64C416.123 99.16 420.643 99.92 425.283 99.92C432.723 99.92 438.203 98.16 441.723 94.64C445.323 91.12 447.123 85.76 447.123 78.56V73.52C444.403 76.8 441.043 79.28 437.043 80.96C433.123 82.56 428.843 83.36 424.203 83.36C418.123 83.36 412.603 82.08 407.643 79.52C402.763 76.88 398.923 73.24 396.123 68.6C393.323 63.88 391.923 58.52 391.923 52.52C391.923 46.52 393.323 41.2 396.123 36.56C398.923 31.84 402.763 28.2 407.643 25.64C412.603 23.08 418.123 21.8 424.203 21.8C429.003 21.8 433.443 22.68 437.523 24.44C441.683 26.2 445.083 28.8 447.723 32.24V22.4H458.643ZM425.523 73.28C429.683 73.28 433.403 72.4 436.683 70.64C440.043 68.88 442.643 66.44 444.483 63.32C446.403 60.12 447.363 56.52 447.363 52.52C447.363 46.36 445.323 41.4 441.243 37.64C437.163 33.8 431.923 31.88 425.523 31.88C419.043 31.88 413.763 33.8 409.683 37.64C405.603 41.4 403.563 46.36 403.563 52.52C403.563 56.52 404.483 60.12 406.323 63.32C408.243 66.44 410.843 68.88 414.123 70.64C417.483 72.4 421.283 73.28 425.523 73.28Z" stroke="#C8C9B9" stroke-width="4" mask="url(#path-1-outside-1)"/>
<path d="M507.894 86.72C501.574 86.72 495.894 85.32 490.854 82.52C485.814 79.72 481.854 75.88 478.974 71C476.174 66.04 474.774 60.44 474.774 54.2C474.774 47.96 476.174 42.4 478.974 37.52C481.854 32.56 485.814 28.72 490.854 26C495.894 23.2 501.574 21.8 507.894 21.8C514.214 21.8 519.854 23.2 524.814 26C529.854 28.72 533.774 32.56 536.574 37.52C539.454 42.4 540.894 47.96 540.894 54.2C540.894 60.44 539.454 66.04 536.574 71C533.774 75.88 529.854 79.72 524.814 82.52C519.854 85.32 514.214 86.72 507.894 86.72ZM507.894 76.64C511.974 76.64 515.614 75.72 518.814 73.88C522.094 71.96 524.654 69.32 526.494 65.96C528.334 62.52 529.254 58.6 529.254 54.2C529.254 49.8 528.334 45.92 526.494 42.56C524.654 39.12 522.094 36.48 518.814 34.64C515.614 32.8 511.974 31.88 507.894 31.88C503.814 31.88 500.134 32.8 496.854 34.64C493.654 36.48 491.094 39.12 489.174 42.56C487.334 45.92 486.414 49.8 486.414 54.2C486.414 58.6 487.334 62.52 489.174 65.96C491.094 69.32 493.654 71.96 496.854 73.88C500.134 75.72 503.814 76.64 507.894 76.64Z" stroke="#C8C9B9" stroke-width="4" mask="url(#path-1-outside-1)"/>
<path d="M590.786 21.8C598.866 21.8 605.266 24.16 609.986 28.88C614.786 33.52 617.186 40.36 617.186 49.4V86H605.666V50.72C605.666 44.56 604.186 39.92 601.226 36.8C598.266 33.68 594.026 32.12 588.506 32.12C582.266 32.12 577.346 33.96 573.746 37.64C570.146 41.24 568.346 46.44 568.346 53.24V86H556.826V22.4H567.866V32C570.186 28.72 573.306 26.2 577.226 24.44C581.226 22.68 585.746 21.8 590.786 21.8Z" stroke="#C8C9B9" stroke-width="4" mask="url(#path-1-outside-1)"/>
<path d="M672.466 21.8C680.546 21.8 686.946 24.16 691.666 28.88C696.466 33.52 698.866 40.36 698.866 49.4V86H687.346V50.72C687.346 44.56 685.866 39.92 682.906 36.8C679.946 33.68 675.706 32.12 670.186 32.12C663.946 32.12 659.026 33.96 655.426 37.64C651.826 41.24 650.026 46.44 650.026 53.24V86H638.506V22.4H649.546V32C651.866 28.72 654.986 26.2 658.906 24.44C662.906 22.68 667.426 21.8 672.466 21.8Z" stroke="#C8C9B9" stroke-width="4" mask="url(#path-1-outside-1)"/>
<path d="M743.346 21.8C752.146 21.8 758.866 23.96 763.506 28.28C768.226 32.6 770.586 39.04 770.586 47.6V86H759.666V77.6C757.746 80.56 754.986 82.84 751.386 84.44C747.866 85.96 743.666 86.72 738.786 86.72C731.666 86.72 725.946 85 721.626 81.56C717.386 78.12 715.266 73.6 715.266 68C715.266 62.4 717.306 57.92 721.386 54.56C725.466 51.12 731.946 49.4 740.826 49.4H759.066V47.12C759.066 42.16 757.626 38.36 754.746 35.72C751.866 33.08 747.626 31.76 742.026 31.76C738.266 31.76 734.586 32.4 730.986 33.68C727.386 34.88 724.346 36.52 721.866 38.6L717.066 29.96C720.346 27.32 724.266 25.32 728.826 23.96C733.386 22.52 738.226 21.8 743.346 21.8ZM740.706 77.84C745.106 77.84 748.906 76.88 752.106 74.96C755.306 72.96 757.626 70.16 759.066 66.56V57.68H741.306C731.546 57.68 726.666 60.96 726.666 67.52C726.666 70.72 727.906 73.24 730.386 75.08C732.866 76.92 736.306 77.84 740.706 77.84Z" stroke="#C8C9B9" stroke-width="4" mask="url(#path-1-outside-1)"/>
<path d="M68.76 139.4V194.36C68.76 205.48 66 213.68 60.48 218.96C54.96 224.32 46.72 227 35.76 227C29.76 227 24.04 226.16 18.6 224.48C13.16 222.88 8.76004 220.56 5.40004 217.52L10.92 208.64C13.88 211.2 17.52 213.2 21.84 214.64C26.24 216.16 30.76 216.92 35.4 216.92C42.84 216.92 48.32 215.16 51.84 211.64C55.44 208.12 57.24 202.76 57.24 195.56V190.52C54.52 193.8 51.16 196.28 47.16 197.96C43.24 199.56 38.96 200.36 34.32 200.36C28.24 200.36 22.72 199.08 17.76 196.52C12.88 193.88 9.04004 190.24 6.24004 185.6C3.44004 180.88 2.04004 175.52 2.04004 169.52C2.04004 163.52 3.44004 158.2 6.24004 153.56C9.04004 148.84 12.88 145.2 17.76 142.64C22.72 140.08 28.24 138.8 34.32 138.8C39.12 138.8 43.56 139.68 47.64 141.44C51.8 143.2 55.2 145.8 57.84 149.24V139.4H68.76ZM35.64 190.28C39.8 190.28 43.52 189.4 46.8 187.64C50.16 185.88 52.76 183.44 54.6 180.32C56.52 177.12 57.48 173.52 57.48 169.52C57.48 163.36 55.44 158.4 51.36 154.64C47.28 150.8 42.04 148.88 35.64 148.88C29.16 148.88 23.88 150.8 19.8 154.64C15.72 158.4 13.68 163.36 13.68 169.52C13.68 173.52 14.6 177.12 16.44 180.32C18.36 183.44 20.96 185.88 24.24 187.64C27.6 189.4 31.4 190.28 35.64 190.28Z" stroke="#C8C9B9" stroke-width="4" mask="url(#path-1-outside-1)"/>
<path d="M90.7716 139.4H102.292V203H90.7716V139.4ZM96.5316 127.16C94.2916 127.16 92.4116 126.44 90.8916 125C89.4516 123.56 88.7316 121.8 88.7316 119.72C88.7316 117.64 89.4516 115.88 90.8916 114.44C92.4116 112.92 94.2916 112.16 96.5316 112.16C98.7716 112.16 100.612 112.88 102.052 114.32C103.572 115.68 104.332 117.4 104.332 119.48C104.332 121.64 103.572 123.48 102.052 125C100.612 126.44 98.7716 127.16 96.5316 127.16Z" stroke="#C8C9B9" stroke-width="4" mask="url(#path-1-outside-1)"/>
<path d="M180.567 139.4L152.727 203H140.967L113.127 139.4H125.127L146.967 190.4L169.287 139.4H180.567Z" stroke="#C8C9B9" stroke-width="4" mask="url(#path-1-outside-1)"/>
<path d="M247.041 171.56C247.041 172.44 246.961 173.6 246.801 175.04H195.201C195.921 180.64 198.361 185.16 202.521 188.6C206.761 191.96 212.001 193.64 218.241 193.64C225.841 193.64 231.961 191.08 236.601 185.96L242.961 193.4C240.081 196.76 236.481 199.32 232.161 201.08C227.921 202.84 223.161 203.72 217.881 203.72C211.161 203.72 205.201 202.36 200.001 199.64C194.801 196.84 190.761 192.96 187.881 188C185.081 183.04 183.681 177.44 183.681 171.2C183.681 165.04 185.041 159.48 187.761 154.52C190.561 149.56 194.361 145.72 199.161 143C204.041 140.2 209.521 138.8 215.601 138.8C221.681 138.8 227.081 140.2 231.801 143C236.601 145.72 240.321 149.56 242.961 154.52C245.681 159.48 247.041 165.16 247.041 171.56ZM215.601 148.52C210.081 148.52 205.441 150.2 201.681 153.56C198.001 156.92 195.841 161.32 195.201 166.76H236.001C235.361 161.4 233.161 157.04 229.401 153.68C225.721 150.24 221.121 148.52 215.601 148.52Z" stroke="#C8C9B9" stroke-width="4" mask="url(#path-1-outside-1)"/>
<path d="M351.544 139.4L320.704 209.36C317.984 215.84 314.784 220.4 311.104 223.04C307.504 225.68 303.144 227 298.024 227C294.904 227 291.864 226.48 288.904 225.44C286.024 224.48 283.624 223.04 281.704 221.12L286.624 212.48C289.904 215.6 293.704 217.16 298.024 217.16C300.824 217.16 303.144 216.4 304.984 214.88C306.904 213.44 308.624 210.92 310.144 207.32L312.184 202.88L284.104 139.4H296.104L318.304 190.28L340.264 139.4H351.544Z" stroke="#C8C9B9" stroke-width="4" mask="url(#path-1-outside-1)"/>
<path d="M387.777 203.72C381.457 203.72 375.777 202.32 370.737 199.52C365.697 196.72 361.737 192.88 358.857 188C356.057 183.04 354.657 177.44 354.657 171.2C354.657 164.96 356.057 159.4 358.857 154.52C361.737 149.56 365.697 145.72 370.737 143C375.777 140.2 381.457 138.8 387.777 138.8C394.097 138.8 399.737 140.2 404.697 143C409.737 145.72 413.657 149.56 416.457 154.52C419.337 159.4 420.777 164.96 420.777 171.2C420.777 177.44 419.337 183.04 416.457 188C413.657 192.88 409.737 196.72 404.697 199.52C399.737 202.32 394.097 203.72 387.777 203.72ZM387.777 193.64C391.857 193.64 395.497 192.72 398.697 190.88C401.977 188.96 404.537 186.32 406.377 182.96C408.217 179.52 409.137 175.6 409.137 171.2C409.137 166.8 408.217 162.92 406.377 159.56C404.537 156.12 401.977 153.48 398.697 151.64C395.497 149.8 391.857 148.88 387.777 148.88C383.697 148.88 380.017 149.8 376.737 151.64C373.537 153.48 370.977 156.12 369.057 159.56C367.217 162.92 366.297 166.8 366.297 171.2C366.297 175.6 367.217 179.52 369.057 182.96C370.977 186.32 373.537 188.96 376.737 190.88C380.017 192.72 383.697 193.64 387.777 193.64Z" stroke="#C8C9B9" stroke-width="4" mask="url(#path-1-outside-1)"/>
<path d="M495.989 139.4V203H485.069V193.4C482.749 196.68 479.669 199.24 475.829 201.08C472.069 202.84 467.949 203.72 463.469 203.72C454.989 203.72 448.309 201.4 443.429 196.76C438.549 192.04 436.109 185.12 436.109 176V139.4H447.629V174.68C447.629 180.84 449.109 185.52 452.069 188.72C455.029 191.84 459.269 193.4 464.789 193.4C470.869 193.4 475.669 191.56 479.189 187.88C482.709 184.2 484.469 179 484.469 172.28V139.4H495.989Z" stroke="#C8C9B9" stroke-width="4" mask="url(#path-1-outside-1)"/>
<path d="M609.427 139.4V203H598.507V193.4C596.187 196.68 593.107 199.24 589.267 201.08C585.507 202.84 581.387 203.72 576.907 203.72C568.427 203.72 561.747 201.4 556.867 196.76C551.987 192.04 549.547 185.12 549.547 176V139.4H561.067V174.68C561.067 180.84 562.547 185.52 565.507 188.72C568.467 191.84 572.707 193.4 578.227 193.4C584.307 193.4 589.107 191.56 592.627 187.88C596.147 184.2 597.907 179 597.907 172.28V139.4H609.427Z" stroke="#C8C9B9" stroke-width="4" mask="url(#path-1-outside-1)"/>
<path d="M665.078 138.8C671.238 138.8 676.758 140.16 681.638 142.88C686.518 145.6 690.318 149.4 693.038 154.28C695.838 159.16 697.238 164.8 697.238 171.2C697.238 177.6 695.838 183.28 693.038 188.24C690.318 193.12 686.518 196.92 681.638 199.64C676.758 202.36 671.238 203.72 665.078 203.72C660.518 203.72 656.318 202.84 652.478 201.08C648.718 199.32 645.518 196.76 642.878 193.4V226.28H631.358V139.4H642.398V149.48C644.958 145.96 648.198 143.32 652.118 141.56C656.038 139.72 660.358 138.8 665.078 138.8ZM664.118 193.64C668.198 193.64 671.838 192.72 675.038 190.88C678.318 188.96 680.878 186.32 682.718 182.96C684.638 179.52 685.598 175.6 685.598 171.2C685.598 166.8 684.638 162.92 682.718 159.56C680.878 156.12 678.318 153.48 675.038 151.64C671.838 149.8 668.198 148.88 664.118 148.88C660.118 148.88 656.478 149.84 653.198 151.76C649.998 153.6 647.438 156.2 645.518 159.56C643.678 162.92 642.758 166.8 642.758 171.2C642.758 175.6 643.678 179.52 645.518 182.96C647.358 186.32 649.918 188.96 653.198 190.88C656.478 192.72 660.118 193.64 664.118 193.64Z" stroke="#C8C9B9" stroke-width="4" mask="url(#path-1-outside-1)"/>
</svg>
