<svg width="92" height="45" viewBox="0 0 92 45" fill="none" xmlns="http://www.w3.org/2000/svg">
<g opacity="0.5">
<path d="M1.06105 8.52924C1.18806 8.42207 1.31219 8.36637 1.43345 8.36214C1.54538 8.35823 1.65379 8.38713 1.75867 8.44884C1.87288 8.51023 1.98775 8.59027 2.10326 8.68896C2.21845 8.77833 2.30951 8.84519 2.37643 8.88955C2.59683 9.04996 2.89521 9.17028 3.27157 9.25053C3.64793 9.33078 4.04599 9.36357 4.46573 9.34892C4.94144 9.3323 5.36276 9.22887 5.72967 9.03862C6.10559 8.83871 6.28818 8.58485 6.27743 8.27703C6.26766 7.99721 6.1574 7.78159 5.94665 7.63018C5.73558 7.46945 5.48416 7.35682 5.1924 7.2923C4.90064 7.22778 4.51576 7.17118 4.03777 7.12249C3.39156 7.07035 2.87528 6.99499 2.48894 6.89641C2.11192 6.79751 1.80709 6.62604 1.57443 6.38201C1.34144 6.12866 1.21681 5.76879 1.20052 5.3024C1.18293 4.79871 1.40776 4.4173 1.875 4.15817C2.34192 3.88971 2.88319 3.74473 3.49881 3.72323C4.05847 3.70369 4.53841 3.80834 4.93864 4.03717C5.34788 4.25636 5.56481 4.58499 5.58945 5.02306C5.6169 5.27426 5.58659 5.47611 5.49852 5.6286C5.41013 5.77178 5.30065 5.84564 5.17006 5.8502C5.09544 5.85281 5.02917 5.82711 4.97125 5.77309C4.92265 5.71876 4.89673 5.64495 4.89347 5.55167C4.88826 5.40243 4.93386 5.23741 5.03028 5.0566C4.97582 4.83436 4.81605 4.67184 4.55097 4.56903C4.29521 4.46589 3.99011 4.42051 3.63566 4.43289C3.11331 4.45113 2.70165 4.56356 2.40068 4.77019C2.09938 4.9675 1.95329 5.19673 1.96241 5.45791C1.97219 5.73774 2.09161 5.94837 2.32068 6.08979C2.54976 6.23122 2.82401 6.32904 3.14343 6.38326C3.47185 6.42782 3.93552 6.46766 4.53445 6.50278C5.03109 6.55081 5.43495 6.61609 5.74602 6.69862C6.06642 6.78082 6.33861 6.95343 6.56259 7.21644C6.78624 7.47012 6.9067 7.84414 6.92397 8.33851C6.94188 8.85153 6.7182 9.26559 6.25291 9.58068C5.7873 9.88645 5.22336 10.0509 4.5611 10.074C3.71228 10.1037 2.94703 9.98564 2.26534 9.71993C1.59298 9.4539 1.19155 9.057 1.06105 8.52924Z" fill="#C8C9B9"/>
<path d="M11.344 9.83716C10.7937 9.85638 10.2904 9.75255 9.83422 9.52566C9.38702 9.28913 9.02985 8.95606 8.76269 8.52645C8.50454 8.08719 8.36553 7.58307 8.34566 7.01409C8.31309 6.08132 8.62928 5.37452 9.29424 4.89369C9.96852 4.41253 10.8047 4.15452 11.8028 4.11967C12.2598 4.10371 12.6881 4.20082 13.0877 4.411C13.4966 4.62086 13.8296 4.93143 14.0868 5.3427C14.344 5.75398 14.4822 6.23478 14.5014 6.78511C14.5223 7.38208 14.3866 7.90981 14.0944 8.36828C13.8019 8.81743 13.4081 9.17206 12.9128 9.43217C12.4266 9.68262 11.9037 9.81762 11.344 9.83716ZM11.1623 9.04502C12.0297 9.01473 12.6805 8.79589 13.1145 8.38849C13.5486 7.9811 13.7524 7.39963 13.726 6.64409C13.7081 6.13107 13.5154 5.69419 13.1479 5.33346C12.7898 4.97241 12.2982 4.8028 11.6733 4.82462C11.2535 4.83928 10.8319 4.93338 10.4084 5.10694C9.98482 5.28049 9.63868 5.53072 9.36992 5.85763C9.10117 6.18455 8.97461 6.57187 8.99024 7.01959C9.00327 7.3927 9.10876 7.73923 9.30672 8.05918C9.50434 8.36981 9.76515 8.61752 10.0891 8.80233C10.4221 8.97748 10.7798 9.05838 11.1623 9.04502Z" fill="#C8C9B9"/>
<path d="M25.0771 9.35759C24.9372 9.36248 24.8519 9.3281 24.8213 9.25446C24.7904 9.17149 24.772 9.04605 24.7662 8.87815C24.7732 8.81253 24.7753 8.73775 24.7723 8.6538C24.7691 8.56053 24.7713 8.49041 24.779 8.44344C24.8193 7.99376 24.8325 7.56837 24.8185 7.16729C24.7875 6.28116 24.6142 5.59612 24.2984 5.11218C23.9824 4.61891 23.5025 4.38352 22.8589 4.40599C22.5045 4.41837 22.1531 4.51936 21.8048 4.70896C21.4659 4.89824 21.1891 5.12737 20.9743 5.39637C20.7689 5.66503 20.67 5.90663 20.6774 6.12117C20.7335 6.39004 20.829 6.71824 20.964 7.10577C20.9749 7.15208 21.0173 7.29536 21.0911 7.53559C21.1742 7.77551 21.2191 7.9934 21.226 8.18929L21.2492 8.45463C21.2544 8.60388 21.1824 8.6811 21.0332 8.68632C20.8466 8.69283 20.6885 8.57695 20.5588 8.33866C20.4384 8.10005 20.2992 7.72668 20.1414 7.21854C19.9839 6.71974 19.8342 6.30938 19.6922 5.98747C19.5502 5.66556 19.3632 5.39192 19.1312 5.16655C18.8992 4.94118 18.6106 4.83452 18.2655 4.84657C17.7898 4.86318 17.4224 5.03944 17.1633 5.37536C16.9135 5.71094 16.7969 6.11659 16.8135 6.5923C16.8246 6.90944 16.8673 7.32821 16.9415 7.8486C17.0018 8.23874 17.0368 8.57372 17.0466 8.85355C17.0525 9.02144 17.0382 9.14802 17.0038 9.23327C16.9694 9.31852 16.8823 9.36359 16.7424 9.36848C16.5558 9.37499 16.4231 9.31892 16.3443 9.20027C16.2651 9.07229 16.2209 8.87771 16.2118 8.61654C16.1939 8.10352 16.1443 7.4842 16.0629 6.7586C16.0503 6.66565 16.0233 6.42845 15.982 6.04699C15.9403 5.65621 15.922 5.26461 15.927 4.8722L15.9248 4.40999C15.9788 4.35207 16.0432 4.32181 16.1178 4.3192C16.2204 4.31562 16.3066 4.37798 16.3765 4.50629C16.4553 4.62494 16.4991 4.81019 16.5079 5.06204C16.6394 4.81463 16.8369 4.58827 17.1006 4.38294C17.3643 4.17761 17.6453 4.06974 17.9438 4.05931C18.4568 4.0414 18.885 4.13385 19.2283 4.33666C19.5806 4.52981 19.9048 4.8547 20.2009 5.31131C20.4455 4.82648 20.823 4.40704 21.3337 4.05301C21.8536 3.69864 22.3934 3.51169 22.9531 3.49215C23.5314 3.47195 24.0194 3.67438 24.4172 4.09942C24.8242 4.52414 25.1271 5.04122 25.3259 5.65065C25.5339 6.25976 25.6471 6.82549 25.6653 7.34784C25.6816 7.81422 25.6552 8.26342 25.5863 8.69542C25.5266 9.1271 25.3569 9.34782 25.0771 9.35759Z" fill="#C8C9B9"/>
<path d="M30.4405 9.15629C29.8435 9.17714 29.2891 9.07976 28.7772 8.86416C28.2654 8.64856 27.8528 8.33143 27.5393 7.91278C27.2258 7.49414 27.0593 7.00498 27.0398 6.44532C27.018 5.82037 27.1142 5.23332 27.3285 4.68417C27.5425 4.1257 27.8676 3.67541 28.3039 3.33331C28.7493 2.98155 29.2751 2.79509 29.8814 2.77392C30.5157 2.75177 31.0032 2.9402 31.344 3.33922C31.6845 3.7289 31.8561 4.23189 31.859 4.84816C31.8782 5.39849 31.6736 5.82589 31.2453 6.13036C30.8264 6.4345 30.2811 6.5983 29.6095 6.62175C29.5069 6.62533 29.3527 6.62138 29.1468 6.60989C28.8097 6.5843 28.5701 6.54131 28.4279 6.4809C28.2857 6.42049 28.2112 6.29235 28.2043 6.09647C28.202 6.03118 28.2191 5.98389 28.2554 5.9546C28.2914 5.91599 28.3654 5.89473 28.4773 5.89082C28.5986 5.88658 28.8141 5.90707 29.1238 5.95229C29.4243 5.99783 29.6911 6.01653 29.9243 6.00839C30.7824 5.97842 31.1985 5.59033 31.1724 4.84412C31.1568 4.39639 31.0604 4.04487 30.8834 3.78956C30.7157 3.53393 30.4267 3.41327 30.0163 3.42761C29.5685 3.44324 29.1717 3.57851 28.8257 3.8334C28.4794 4.07897 28.215 4.39639 28.0325 4.78567C27.8593 5.17462 27.7802 5.58363 27.7951 6.0127C27.8209 6.74958 28.0473 7.34871 28.4743 7.81009C28.901 8.26214 29.5434 8.47318 30.4015 8.44322C30.5042 8.43963 30.6764 8.42428 30.9183 8.39716C31.0205 8.38425 31.1455 8.35186 31.2931 8.30001C31.4407 8.24816 31.5468 8.21177 31.6115 8.19084C32.0077 8.03692 32.2991 7.9567 32.4856 7.95018C32.6255 7.9453 32.7341 7.97886 32.8113 8.05088C32.5905 8.41347 32.2498 8.68686 31.7893 8.87104C31.3378 9.04558 30.8882 9.14066 30.4405 9.15629Z" fill="#C8C9B9"/>
<path d="M36.5866 8.95567C36.0363 8.97489 35.533 8.87106 35.0768 8.64417C34.6296 8.40764 34.2724 8.07457 34.0053 7.64496C33.7471 7.2057 33.6081 6.70158 33.5882 6.1326C33.5557 5.19983 33.8719 4.49303 34.5368 4.0122C35.2111 3.53104 36.0473 3.27303 37.0453 3.23818C37.5024 3.22222 37.9307 3.31933 38.3303 3.52951C38.7392 3.73937 39.0722 4.04994 39.3294 4.46121C39.5866 4.87249 39.7248 5.35329 39.744 5.90362C39.7648 6.50059 39.6292 7.02831 39.337 7.48679C39.0445 7.93594 38.6506 8.29057 38.1554 8.55068C37.6692 8.80113 37.1463 8.93613 36.5866 8.95567ZM36.4048 8.16353C37.2723 8.13324 37.9231 7.9144 38.3571 7.507C38.7912 7.09961 38.995 6.51814 38.9686 5.7626C38.9507 5.24958 38.758 4.8127 38.3905 4.45197C38.0324 4.09092 37.5408 3.9213 36.9159 3.94313C36.4961 3.95779 36.0745 4.05189 35.6509 4.22545C35.2274 4.399 34.8813 4.64923 34.6125 4.97614C34.3438 5.30306 34.2172 5.69038 34.2328 6.1381C34.2459 6.51121 34.3513 6.85774 34.5493 7.17769C34.7469 7.48832 35.0077 7.73603 35.3317 7.92084C35.6647 8.09599 36.0224 8.17689 36.4048 8.16353Z" fill="#C8C9B9"/>
<path d="M42.5699 8.78876C42.4406 8.83063 42.3666 8.85189 42.3479 8.85254C42.2733 8.85515 42.1927 8.82061 42.1062 8.74892C41.7824 8.30261 41.5307 7.51291 41.351 6.37983C41.1807 5.24641 41.0812 4.26929 41.0526 3.44846C41.048 3.31787 41.139 3.24932 41.3255 3.24281C41.6054 3.23303 41.7507 3.38206 41.7614 3.68987C41.7643 3.77382 41.7621 3.84394 41.7547 3.90023C41.8319 3.70142 41.9834 3.49533 42.2094 3.28198C42.4355 3.06863 42.7 2.88662 43.0029 2.73596C43.3058 2.5853 43.6158 2.50443 43.933 2.49335C44.931 2.4585 45.6741 2.87616 46.1621 3.74632C46.6497 4.60716 46.9164 5.69051 46.962 6.99638C46.9776 7.44411 46.9435 7.80485 46.8597 8.07861C46.7755 8.34305 46.6542 8.47803 46.4956 8.48357C46.3277 8.48943 46.242 8.44106 46.2384 8.33846C46.2864 7.84181 46.3021 7.35563 46.2855 6.87992C46.2435 5.67666 46.0018 4.77454 45.5606 4.17357C45.119 3.56328 44.5531 3.27018 43.8629 3.29429C43.5271 3.30601 43.2036 3.40136 42.8923 3.58033C42.5903 3.75898 42.3466 4.00097 42.1612 4.30629C41.985 4.61129 41.9037 4.95501 41.917 5.33744C41.932 5.76651 41.9683 6.1388 42.0261 6.45432C42.0838 6.76983 42.1717 7.14965 42.29 7.5938C42.4172 8.02829 42.5105 8.42661 42.5699 8.78876Z" fill="#C8C9B9"/>
<path d="M51.7206 8.41317C51.1236 8.43402 50.5692 8.33664 50.0574 8.12104C49.5456 7.90544 49.1329 7.58831 48.8194 7.16967C48.506 6.75102 48.3395 6.26186 48.3199 5.7022C48.2981 5.07725 48.3943 4.4902 48.6086 3.94106C48.8226 3.38258 49.1478 2.93229 49.5841 2.59019C50.0294 2.23843 50.5552 2.05197 51.1615 2.0308C51.7958 2.00865 52.2834 2.19708 52.6242 2.5961C52.9646 2.98578 53.1363 3.48877 53.1391 4.10504C53.1583 4.65537 52.9538 5.08277 52.5255 5.38724C52.1065 5.69138 51.5612 5.85518 50.8897 5.87863C50.7871 5.88221 50.6328 5.87826 50.427 5.86677C50.0899 5.84119 49.8502 5.79819 49.708 5.73778C49.5658 5.67737 49.4913 5.54923 49.4845 5.35335C49.4822 5.28806 49.4992 5.24077 49.5355 5.21148C49.5716 5.17287 49.6455 5.15161 49.7575 5.1477C49.8787 5.14346 50.0942 5.16395 50.404 5.20917C50.7044 5.25471 50.9712 5.27341 51.2044 5.26527C52.0626 5.2353 52.4786 4.84721 52.4526 4.101C52.4369 3.65327 52.3406 3.30176 52.1636 3.04644C51.9959 2.79081 51.7068 2.67015 51.2964 2.68449C50.8487 2.70012 50.4518 2.83539 50.1059 3.09028C49.7596 3.33585 49.4951 3.65327 49.3126 4.04255C49.1394 4.4315 49.0603 4.84051 49.0753 5.26958C49.101 6.00646 49.3274 6.60559 49.7544 7.06697C50.1811 7.51902 50.8236 7.73006 51.6817 7.7001C51.7843 7.69651 51.9565 7.68116 52.1984 7.65404C52.3007 7.64113 52.4256 7.60875 52.5732 7.5569C52.7209 7.50505 52.827 7.46865 52.8916 7.44772C53.2878 7.2938 53.5792 7.21358 53.7658 7.20706C53.9057 7.20218 54.0143 7.23574 54.0915 7.30776C53.8707 7.67035 53.53 7.94374 53.0695 8.12793C52.618 8.30246 52.1683 8.39754 51.7206 8.41317Z" fill="#C8C9B9"/>
<path d="M7.74711 23.8873C7.22476 23.9055 6.79694 23.8224 6.46363 23.6379C6.13932 23.4438 5.90438 23.1344 5.75881 22.7099C5.49592 23.2047 5.18682 23.5798 4.83151 23.835C4.47588 24.0809 4.08819 24.2111 3.66844 24.2258C2.94089 24.2512 2.37211 24.0096 1.9621 23.5009C1.5521 22.9922 1.32674 22.1549 1.28603 20.989C1.26681 20.4386 1.30649 19.9703 1.40507 19.584C1.51297 19.1973 1.7013 18.8405 1.97005 18.5136C2.10227 18.5557 2.18384 18.6182 2.21475 18.7012C2.25467 18.7745 2.27723 18.8858 2.28244 19.035C2.28765 19.1843 2.27421 19.3341 2.24211 19.4847C2.21934 19.6349 2.20378 19.7242 2.19543 19.7525C2.13991 20.0346 2.09724 20.2836 2.06742 20.4994C2.0466 20.7056 2.04157 20.9626 2.05232 21.2704C2.07577 21.942 2.22091 22.4879 2.48774 22.9082C2.76357 23.3188 3.14401 23.5157 3.62904 23.4987C4.17938 23.4795 4.60226 23.2873 4.89769 22.9221C5.20213 22.5473 5.3449 22.0893 5.32601 21.5483L5.17823 20.1246C5.17628 20.0686 5.21163 20.0114 5.2843 19.9528C5.3663 19.8939 5.4586 19.8627 5.5612 19.8591C5.69179 19.8545 5.78349 19.94 5.83632 20.1156C5.88915 20.2912 5.94089 20.5696 5.99156 20.9507C6.06414 21.4245 6.13845 21.8141 6.21449 22.1197C6.29954 22.4155 6.44873 22.6765 6.66208 22.9025C6.87511 23.1192 7.1775 23.2207 7.56926 23.207C8.04498 23.1904 8.38554 23.0478 8.59095 22.7791C8.79604 22.5011 8.8911 22.1476 8.87611 21.7185C8.86276 21.3361 8.77413 20.9376 8.61023 20.5231C8.45533 20.0989 8.27056 19.7551 8.0559 19.4918C8.04364 19.4082 8.08317 19.3368 8.1745 19.2775C8.27515 19.218 8.37726 19.2004 8.48084 19.2248C8.65004 19.2563 8.80916 19.4001 8.9582 19.6564C9.11656 19.9124 9.24455 20.2348 9.34218 20.6236C9.44914 21.0121 9.50946 21.4022 9.52314 21.794C9.54366 22.3816 9.41136 22.8719 9.12623 23.2647C8.85043 23.6573 8.39072 23.8648 7.74711 23.8873Z" fill="#C8C9B9"/>
<path d="M12.2639 23.7715C12.2176 23.7825 12.1601 23.6071 12.0914 23.2452C12.0321 22.8831 11.945 22.2604 11.8301 21.3772C11.6487 19.9267 11.4528 18.598 11.2426 17.3913C11.0417 16.1842 10.8045 15.1419 10.531 14.2642C10.5098 14.1903 10.5355 14.124 10.6081 14.0654C10.6808 14.0068 10.7824 13.9753 10.913 13.9707C10.9783 13.9684 11.0298 13.9713 11.0674 13.9793C11.3228 14.6055 11.5055 15.1594 11.6157 15.6412C11.7353 16.1227 11.8494 16.7164 11.9581 17.4224L12.0471 17.9656C12.5951 17.6102 13.1022 17.4244 13.5686 17.4081C14.4174 17.3785 15.0326 17.7446 15.4141 18.5064C15.8045 19.2586 16.0245 20.3436 16.0741 21.7614C16.0929 22.3024 16.0763 22.7606 16.024 23.1359C15.9714 23.502 15.8985 23.6867 15.8052 23.6899C15.6839 23.6941 15.5456 23.6103 15.3902 23.4382L15.374 22.9765L15.3348 21.451C15.3247 21.1618 15.3028 20.803 15.2692 20.3746C15.2158 19.648 15.0473 19.1029 14.7638 18.7392C14.4896 18.3753 14.0307 18.2045 13.3871 18.227C12.958 18.242 12.5624 18.4145 12.2004 18.7447C12.2128 19.0992 12.2395 19.4624 12.2805 19.8346C12.3308 20.2064 12.3855 20.5687 12.4445 20.9215C12.5271 21.4136 12.589 21.8504 12.6304 22.2318C12.6807 22.6036 12.7139 23.0181 12.7298 23.4751C12.6778 23.589 12.6151 23.6659 12.5418 23.7058C12.4778 23.7454 12.3851 23.7673 12.2639 23.7715Z" fill="#C8C9B9"/>
<path d="M20.5428 23.5245C19.9925 23.5437 19.4892 23.4399 19.033 23.213C18.5859 22.9764 18.2287 22.6434 17.9615 22.2138C17.7034 21.7745 17.5644 21.2704 17.5445 20.7014C17.5119 19.7686 17.8281 19.0618 18.4931 18.581C19.1674 18.0998 20.0035 17.8418 21.0016 17.807C21.4586 17.791 21.887 17.8881 22.2865 18.0983C22.6954 18.3082 23.0285 18.6187 23.2857 19.03C23.5428 19.4413 23.681 19.9221 23.7002 20.4724C23.7211 21.0694 23.5854 21.5971 23.2933 22.0556C23.0007 22.5047 22.6069 22.8594 22.1117 23.1195C21.6254 23.3699 21.1025 23.5049 20.5428 23.5245ZM20.3611 22.7323C21.2286 22.702 21.8793 22.4832 22.3134 22.0758C22.7474 21.6684 22.9512 21.0869 22.9249 20.3314C22.9069 19.8184 22.7142 19.3815 22.3468 19.0208C21.9886 18.6597 21.4971 18.4901 20.8721 18.5119C20.4524 18.5266 20.0307 18.6207 19.6072 18.7942C19.1837 18.9678 18.8375 19.218 18.5688 19.5449C18.3 19.8719 18.1734 20.2592 18.1891 20.7069C18.2021 21.08 18.3076 21.4265 18.5055 21.7465C18.7032 22.0571 18.964 22.3048 19.288 22.4896C19.6209 22.6648 19.9787 22.7457 20.3611 22.7323Z" fill="#C8C9B9"/>
<path d="M30.5107 23.1344C30.4644 23.1453 30.4069 22.9699 30.3383 22.6081C30.2789 22.2459 30.1918 21.6232 30.0769 20.74C29.8955 19.2895 29.6997 17.9608 29.4894 16.7541C29.2885 15.5471 29.0513 14.5047 28.7779 13.627C28.7566 13.5531 28.7823 13.4868 28.855 13.4282C28.9277 13.3697 29.0293 13.3381 29.1599 13.3335C29.2252 13.3312 29.2766 13.3341 29.3143 13.3421C29.5696 13.9683 29.7524 14.5222 29.8626 15.004C29.9821 15.4855 30.0963 16.0792 30.205 16.7852L30.294 17.3284C30.8419 16.973 31.3491 16.7872 31.8155 16.7709C32.6643 16.7413 33.2794 17.1074 33.6609 17.8692C34.0514 18.6214 34.2714 19.7064 34.3209 21.1242C34.3398 21.6652 34.3231 22.1234 34.2708 22.4987C34.2183 22.8648 34.1453 23.0495 34.052 23.0527C33.9308 23.057 33.7924 22.9731 33.637 22.801L33.6209 22.3393L33.5816 20.8138C33.5715 20.5246 33.5497 20.1658 33.516 19.7374C33.4626 19.0108 33.2942 18.4657 33.0106 18.102C32.7364 17.7381 32.2775 17.5673 31.6339 17.5898C31.2048 17.6048 30.8093 17.7773 30.4473 18.1075C30.4596 18.462 30.4863 18.8252 30.5273 19.1974C30.5777 19.5692 30.6324 19.9315 30.6914 20.2843C30.7739 20.7764 30.8359 21.2132 30.8772 21.5946C30.9276 21.9664 30.9607 22.3809 30.9767 22.8379C30.9246 22.9518 30.8619 23.0287 30.7886 23.0686C30.7246 23.1082 30.632 23.1301 30.5107 23.1344Z" fill="#C8C9B9"/>
<path d="M39.195 22.8591C38.598 22.88 38.0436 22.7826 37.5317 22.567C37.0199 22.3514 36.6073 22.0343 36.2938 21.6156C35.9803 21.197 35.8138 20.7078 35.7943 20.1481C35.7724 19.5232 35.8687 18.9361 36.083 18.387C36.297 17.8285 36.6221 17.3782 37.0584 17.0361C37.5038 16.6844 38.0296 16.4979 38.6359 16.4767C39.2702 16.4546 39.7577 16.643 40.0985 17.042C40.439 17.4317 40.6106 17.9347 40.6135 18.551C40.6327 19.1013 40.4281 19.5287 39.9998 19.8332C39.5809 20.1373 39.0356 20.3011 38.364 20.3246C38.2614 20.3282 38.1072 20.3242 37.9013 20.3127C37.5642 20.2871 37.3246 20.2441 37.1824 20.1837C37.0402 20.1233 36.9656 19.9952 36.9588 19.7993C36.9565 19.734 36.9736 19.6867 37.0099 19.6574C37.0459 19.6188 37.1199 19.5975 37.2318 19.5936C37.3531 19.5894 37.5686 19.6099 37.8783 19.6551C38.1788 19.7007 38.4456 19.7194 38.6788 19.7112C39.5369 19.6812 39.953 19.2932 39.9269 18.5469C39.9113 18.0992 39.8149 17.7477 39.6379 17.4924C39.4702 17.2367 39.1812 17.1161 38.7708 17.1304C38.323 17.1461 37.9262 17.2813 37.5802 17.5362C37.2339 17.7818 36.9695 18.0992 36.787 18.4885C36.6138 18.8774 36.5347 19.2864 36.5496 19.7155C36.5754 20.4524 36.8017 21.0515 37.2288 21.5129C37.6555 21.965 38.2979 22.176 39.156 22.146C39.2586 22.1425 39.4309 22.1271 39.6728 22.1C39.775 22.0871 39.9 22.0547 40.0476 22.0028C40.1952 21.951 40.3013 21.9146 40.366 21.8937C40.7622 21.7397 41.0536 21.6595 41.2401 21.653C41.38 21.6481 41.4886 21.6817 41.5658 21.7537C41.345 22.1163 41.0043 22.3897 40.5438 22.5739C40.0923 22.7484 39.6427 22.8435 39.195 22.8591Z" fill="#C8C9B9"/>
<path d="M46.0402 22.6201C45.0701 22.6539 44.2201 22.5155 43.4901 22.2048C42.7692 21.8844 42.3937 21.2952 42.3637 20.437C42.353 20.1292 42.4358 19.8275 42.6123 19.5318C42.7888 19.2362 43.0558 18.9934 43.4134 18.8034C43.7706 18.6042 44.2104 18.4954 44.7328 18.4772C45.1339 18.4632 45.475 18.4699 45.7561 18.4975C46.0373 18.525 46.3626 18.6164 46.7323 18.7716C47.1019 18.9268 47.489 19.1794 47.8934 19.5295C47.7217 18.8911 47.4782 18.3346 47.1627 17.86C46.8473 17.3854 46.4985 17.024 46.1163 16.7759C45.743 16.5181 45.3792 16.3953 45.0247 16.4077C44.8568 16.4136 44.6994 16.4518 44.5525 16.5223C44.4145 16.5831 44.2449 16.6731 44.0436 16.7922C43.8156 16.9496 43.6456 17.0302 43.5337 17.0341C43.4871 17.0358 43.4446 17.0232 43.4063 16.9966C43.377 16.9602 43.3616 16.9187 43.3599 16.8721C43.3469 16.499 43.5 16.2041 43.8193 15.9875C44.148 15.7706 44.5505 15.6632 45.0268 15.6652C45.6811 15.6797 46.2878 15.9387 46.8471 16.4421C47.406 16.9363 47.8527 17.5604 48.1872 18.3145C48.5311 19.0683 48.7159 19.8136 48.7416 20.5505C48.7458 20.6718 48.7425 20.8447 48.7317 21.0692L48.283 21.0568C47.9034 20.351 47.4286 19.8586 46.8586 19.5797C46.2975 19.2911 45.7371 19.1565 45.1775 19.1761C44.4592 19.2012 43.9499 19.3263 43.6496 19.5516C43.3493 19.7769 43.2063 20.0948 43.2206 20.5052C43.2356 20.9343 43.4622 21.2719 43.9004 21.5181C44.3386 21.7643 44.8935 21.8756 45.5651 21.8522C45.9382 21.8392 46.236 21.8101 46.4586 21.7649C46.6808 21.7105 46.9119 21.6417 47.1518 21.5586C47.3454 21.4865 47.5163 21.4338 47.6646 21.4006C47.8129 21.3674 48.0036 21.3468 48.2368 21.3386C48.498 21.3295 48.6618 21.3425 48.7284 21.3775C48.8044 21.4122 48.8446 21.4948 48.8492 21.6254C48.8524 21.7187 48.6653 21.842 48.2877 21.9953C47.9102 22.1485 47.4855 22.2894 47.0137 22.418C46.5419 22.5465 46.2174 22.6139 46.0402 22.6201Z" fill="#C8C9B9"/>
<path d="M51.5114 22.429C51.1029 21.6962 50.7691 20.8299 50.5101 19.8304C50.2604 18.8305 50.1226 17.9621 50.0969 17.2252C50.0868 16.9361 50.1456 16.7472 50.2732 16.6587C50.3462 16.6095 50.4014 16.5842 50.4387 16.5829C50.504 16.5806 50.5524 16.6303 50.584 16.7319C50.6249 16.8332 50.6687 17.0185 50.7155 17.2877L50.803 17.7889C50.888 17.2816 51.0701 16.8784 51.3491 16.5791C51.6372 16.2702 51.9958 16.1083 52.4248 16.0933C52.9005 16.0767 53.2582 16.1576 53.4979 16.336C53.7373 16.5051 53.8643 16.7995 53.879 17.2192C53.4048 17.0116 52.9765 16.9145 52.5941 16.9279C52.2303 16.9406 51.9212 17.0494 51.6669 17.2544C51.4126 17.4594 51.2408 17.7549 51.1515 18.141C51.0767 18.4051 51.0433 18.6537 51.0515 18.8869C51.0603 19.1388 51.1012 19.3755 51.1743 19.5971C51.2565 19.809 51.3777 20.0709 51.538 20.3828C51.6893 20.7044 51.8063 20.9805 51.8891 21.2111C51.9812 21.4413 52.0366 21.6916 52.0554 21.9617C52.0609 22.1203 52.0091 22.2389 51.8997 22.3174C51.7901 22.3866 51.6606 22.4238 51.5114 22.429Z" fill="#C8C9B9"/>
<path d="M6.0907 44.6497C5.45642 44.6719 4.88271 44.5565 4.36957 44.3036C3.86576 44.0503 3.45843 43.7517 3.14756 43.4077C2.8367 43.0636 2.6587 42.7803 2.61358 42.5578C2.5691 42.3539 2.6102 42.1937 2.73688 42.0772C2.87289 41.9604 3.04382 41.9077 3.24968 41.9192C3.56294 42.5993 3.92663 43.119 4.34075 43.4781C4.75486 43.8372 5.33536 44.013 6.08222 44.0056C6.60489 43.9967 7.00825 43.6464 7.29228 42.9547C7.58597 42.2721 7.781 41.4388 7.87739 40.4548C7.9741 39.4802 8.00601 38.5218 7.97311 37.5797C7.95617 37.0947 7.92834 36.6987 7.8896 36.3919C7.211 37.2841 6.32136 37.7495 5.2207 37.7879C4.26928 37.8211 3.52126 37.3943 2.97664 36.5074C2.44135 35.6202 2.07922 34.6103 1.89024 33.4775C1.86767 33.3662 1.85281 33.208 1.84564 33.0028C1.82512 32.4151 2.00608 32.1146 2.38851 32.1013C2.42582 32.1 2.48527 32.3314 2.56685 32.7955C2.69519 33.5288 2.84424 34.1866 3.014 34.7691C3.18376 35.3515 3.44967 35.8792 3.81173 36.3522C4.1828 36.8155 4.65749 37.0371 5.2358 37.0169C5.69285 37.0009 6.15403 36.8354 6.61931 36.5203C7.0936 36.1956 7.4315 35.8429 7.63301 35.4623C7.60825 34.7534 7.49282 34.1224 7.28673 33.5692C7.08963 33.0064 6.98577 32.7065 6.97514 32.6695C6.94932 32.465 6.93543 32.3347 6.93348 32.2788C6.92696 32.0922 6.95022 31.956 7.00326 31.8701C7.06562 31.7838 7.15743 31.7386 7.27869 31.7344C7.40927 31.7298 7.5678 31.9904 7.75426 32.5163C7.94073 33.0421 8.11424 33.7318 8.27479 34.5854C8.43535 35.4389 8.55523 36.3313 8.63444 37.2624C8.67003 37.7468 8.6919 38.1056 8.70004 38.3388C8.76258 40.1297 8.59051 41.6206 8.18383 42.8115C7.78647 44.0021 7.08876 44.6149 6.0907 44.6497Z" fill="#C8C9B9"/>
<path d="M13.4006 37.7824C12.8503 37.8016 12.347 37.6978 11.8908 37.4709C11.4436 37.2344 11.0865 36.9013 10.8193 36.4717C10.5611 36.0324 10.4221 35.5283 10.4023 34.9593C10.3697 34.0266 10.6859 33.3198 11.3508 32.8389C12.0251 32.3578 12.8613 32.0998 13.8594 32.0649C14.3164 32.049 14.7447 32.1461 15.1443 32.3563C15.5532 32.5661 15.8863 32.8767 16.1434 33.288C16.4006 33.6992 16.5388 34.18 16.558 34.7304C16.5789 35.3273 16.4432 35.8551 16.151 36.3135C15.8585 36.7627 15.4647 37.1173 14.9694 37.3774C14.4832 37.6279 13.9603 37.7629 13.4006 37.7824ZM13.2189 36.9903C14.0863 36.96 14.7371 36.7411 15.1711 36.3337C15.6052 35.9263 15.809 35.3449 15.7826 34.5893C15.7647 34.0763 15.572 33.6394 15.2045 33.2787C14.8464 32.9177 14.3548 32.748 13.7299 32.7699C13.3101 32.7845 12.8885 32.8786 12.465 33.0522C12.0414 33.2257 11.6953 33.476 11.4265 33.8029C11.1578 34.1298 11.0312 34.5171 11.0468 34.9648C11.0599 35.3379 11.1654 35.6845 11.3633 36.0044C11.561 36.3151 11.8218 36.5628 12.1457 36.7476C12.4787 36.9227 12.8364 37.0036 13.2189 36.9903Z" fill="#C8C9B9"/>
<path d="M24.4864 37.3112C24.3185 37.3171 24.1808 37.2519 24.0733 37.1155C23.9748 36.9696 23.883 36.7486 23.798 36.4527C23.7126 36.1475 23.5774 35.6199 23.3925 34.8699C23.2557 35.5004 22.9747 36.0099 22.5493 36.3983C22.1236 36.7774 21.5936 36.978 20.9594 37.0001C20.381 37.0203 19.8843 36.8369 19.4692 36.4498C19.0631 36.0531 18.7506 35.527 18.5316 34.8716C18.3123 34.2068 18.1891 33.4873 18.162 32.7132C18.1497 32.3587 18.1717 32.0544 18.2282 31.8003C18.2937 31.5365 18.3755 31.3375 18.4735 31.2034C18.5809 31.0689 18.6861 31.0045 18.789 31.0102C18.9009 31.0063 18.9595 31.079 18.9647 31.2282C18.9689 31.3495 18.943 31.5419 18.8868 31.8053C18.8316 32.0967 18.8105 32.429 18.8235 32.8021C18.8431 33.3618 18.9414 33.9047 19.1186 34.4308C19.305 34.9566 19.5629 35.3866 19.8921 35.7206C20.2302 36.045 20.6185 36.1995 21.0569 36.1842C21.4207 36.1715 21.7481 36.0527 22.0391 35.8277C22.3301 35.6028 22.5538 35.3241 22.7103 34.9918C22.8762 34.6592 22.9535 34.3343 22.9425 34.0171L22.8648 31.7925C22.9605 31.593 23.097 31.4902 23.2743 31.484C23.4328 31.4785 23.5448 31.61 23.6102 31.8785C23.6756 32.1471 23.717 32.5285 23.7342 33.0229C23.7489 33.4426 23.7555 33.7646 23.754 33.9888C23.8207 34.2946 23.9155 34.6042 24.0385 34.9174C24.1709 35.2303 24.3327 35.5842 24.5239 35.9791C24.7557 36.466 24.8735 36.7654 24.8775 36.8773C24.8872 37.1572 24.7569 37.3018 24.4864 37.3112Z" fill="#C8C9B9"/>
<path d="M27.5297 37.275C27.1212 36.5421 26.7874 35.6759 26.5284 34.6764C26.2786 33.6765 26.1409 32.8081 26.1152 32.0712C26.1051 31.782 26.1639 31.5932 26.2915 31.5047C26.3645 31.4555 26.4197 31.4302 26.457 31.4289C26.5223 31.4266 26.5707 31.4763 26.6023 31.5779C26.6432 31.6792 26.687 31.8645 26.7337 32.1337L26.8213 32.6349C26.9063 32.1276 27.0883 31.7244 27.3674 31.4251C27.6555 31.1162 28.014 30.9543 28.4431 30.9393C28.9188 30.9227 29.2765 31.0036 29.5162 31.182C29.7556 31.351 29.8826 31.6455 29.8973 32.0652C29.4231 31.8576 28.9948 31.7605 28.6123 31.7739C28.2485 31.7866 27.9395 31.8954 27.6852 32.1004C27.4308 32.3054 27.259 32.6009 27.1698 32.987C27.095 33.2511 27.0616 33.4997 27.0698 33.7329C27.0786 33.9847 27.1195 34.2215 27.1926 34.443C27.2747 34.655 27.3959 34.9169 27.5563 35.2288C27.7076 35.5504 27.8246 35.8265 27.9074 36.0571C27.9995 36.2873 28.0549 36.5376 28.0737 36.8077C28.0792 36.9663 28.0273 37.0849 27.918 37.1634C27.8083 37.2326 27.6789 37.2698 27.5297 37.275Z" fill="#C8C9B9"/>
<path d="M36.5122 41.9484C36.3257 41.9549 36.0844 41.4637 35.7883 40.4747C35.5016 39.4855 35.2344 38.3835 34.9865 37.1687C34.7482 35.9629 34.6236 35.2015 34.6125 34.8844C34.5796 33.9423 34.8728 33.2456 35.4921 32.7944C36.1111 32.3338 36.9196 32.0861 37.9177 32.0513C38.4493 32.0327 38.9569 32.1271 39.4405 32.3343C39.9237 32.5322 40.317 32.8314 40.6205 33.2317C40.9237 33.6227 41.0845 34.084 41.1031 34.6157C41.1262 35.2779 40.9093 35.7525 40.4524 36.0393C40.0048 36.3257 39.4312 36.4812 38.7316 36.5056C38.0041 36.531 37.3795 36.4314 36.858 36.2068C36.3456 35.9725 36.0818 35.6409 36.0668 35.2118L36.0759 35.0714C36.1386 34.9945 36.2073 34.9547 36.2819 34.9521C36.3472 34.9499 36.4181 34.9754 36.4947 35.0288C36.5803 35.0725 36.6709 35.1253 36.7664 35.1874C37.0631 35.3918 37.3536 35.5544 37.638 35.6753C37.9317 35.7957 38.2931 35.8485 38.7222 35.8335C39.3098 35.813 39.7213 35.6959 39.9566 35.4822C40.201 35.2589 40.3152 34.9187 40.2992 34.4616C40.2875 34.1258 40.1652 33.8313 39.9322 33.5779C39.6992 33.3246 39.403 33.1341 39.0437 33.0066C38.6844 32.879 38.3181 32.8218 37.945 32.8348C37.0776 32.8651 36.4311 33.0745 36.0058 33.4629C35.5801 33.842 35.4055 34.4598 35.4821 35.3163C35.6169 36.7685 35.7901 37.9858 36.0019 38.9684C36.223 39.9506 36.5741 40.7788 37.0553 41.4531L37.0702 41.4806C37.0709 41.4993 37.0482 41.5187 37.0022 41.539C36.9659 41.5683 36.9387 41.5926 36.9207 41.6119C36.815 41.793 36.6788 41.9052 36.5122 41.9484Z" fill="#C8C9B9"/>
<path d="M43.809 36.7065C43.4005 35.9737 43.0667 35.1075 42.8077 34.1079C42.5579 33.108 42.4202 32.2396 42.3945 31.5027C42.3844 31.2136 42.4432 31.0247 42.5708 30.9362C42.6438 30.887 42.699 30.8617 42.7363 30.8604C42.8016 30.8581 42.85 30.9078 42.8816 31.0094C42.9225 31.1107 42.9663 31.296 43.013 31.5652L43.1006 32.0664C43.1856 31.5591 43.3676 31.1559 43.6467 30.8566C43.9348 30.5477 44.2933 30.3858 44.7224 30.3708C45.1981 30.3542 45.5558 30.4351 45.7955 30.6135C46.0349 30.7826 46.1619 31.077 46.1766 31.4967C45.7024 31.2891 45.2741 31.192 44.8916 31.2054C44.5278 31.2181 44.2188 31.3269 43.9645 31.5319C43.7101 31.7369 43.5383 32.0325 43.4491 32.4185C43.3743 32.6826 43.3409 32.9312 43.3491 33.1644C43.3579 33.4163 43.3988 33.653 43.4719 33.8746C43.554 34.0865 43.6752 34.3484 43.8356 34.6603C43.9869 34.9819 44.1039 35.258 44.1867 35.4886C44.2788 35.7189 44.3342 35.9691 44.353 36.2392C44.3585 36.3978 44.3066 36.5164 44.1973 36.5949C44.0876 36.6641 43.9582 36.7013 43.809 36.7065Z" fill="#C8C9B9"/>
<path d="M50.7847 36.4629C49.8146 36.4968 48.9646 36.3584 48.2346 36.0477C47.5137 35.7273 47.1382 35.138 47.1083 34.2799C47.0975 33.9721 47.1804 33.6703 47.3568 33.3747C47.5333 33.079 47.8003 32.8362 48.1579 32.6463C48.5151 32.447 48.955 32.3383 49.4773 32.32C49.8784 32.306 50.2195 32.3128 50.5006 32.3403C50.7818 32.3679 51.1072 32.4592 51.4768 32.6144C51.8464 32.7696 52.2335 33.0223 52.638 33.3724C52.4662 32.734 52.2227 32.1775 51.9072 31.7028C51.5918 31.2282 51.243 30.8669 50.8608 30.6187C50.4875 30.3609 50.1237 30.2382 49.7693 30.2506C49.6014 30.2564 49.4439 30.2946 49.297 30.3651C49.159 30.426 48.9894 30.516 48.7881 30.6351C48.5601 30.7924 48.3901 30.8731 48.2782 30.877C48.2316 30.8786 48.1891 30.8661 48.1508 30.8394C48.1215 30.8031 48.1061 30.7616 48.1045 30.715C48.0914 30.3419 48.2446 30.047 48.5639 29.8304C48.8925 29.6135 49.295 29.506 49.7713 29.5081C50.4256 29.5226 51.0323 29.7815 51.5916 30.285C52.1505 30.7791 52.5972 31.4033 52.9317 32.1574C53.2756 32.9112 53.4604 33.6565 53.4861 34.3934C53.4903 34.5146 53.487 34.6875 53.4762 34.912L53.0275 34.8997C52.648 34.1938 52.1732 33.7015 51.6031 33.4225C51.042 33.1339 50.4816 32.9994 49.922 33.0189C49.2037 33.044 48.6945 33.1692 48.3941 33.3945C48.0938 33.6198 47.9508 33.9376 47.9652 34.348C47.9801 34.7771 48.2067 35.1147 48.6449 35.3609C49.0831 35.6071 49.638 35.7185 50.3096 35.695C50.6827 35.682 50.9805 35.6529 51.2031 35.6078C51.4253 35.5533 51.6564 35.4846 51.8963 35.4015C52.0899 35.3293 52.2609 35.2767 52.4091 35.2435C52.5574 35.2103 52.7481 35.1896 52.9813 35.1815C53.2425 35.1724 53.4064 35.1853 53.473 35.2203C53.5489 35.2551 53.5891 35.3377 53.5937 35.4683C53.5969 35.5616 53.4098 35.6848 53.0322 35.8381C52.6547 35.9914 52.23 36.1323 51.7582 36.2608C51.2864 36.3894 50.9619 36.4567 50.7847 36.4629Z" fill="#C8C9B9"/>
<path d="M59.0894 42.799C58.4551 42.8211 57.8814 42.7057 57.3683 42.4528C56.8645 42.1996 56.4571 41.9009 56.1463 41.5569C55.8354 41.2129 55.6574 40.9296 55.6123 40.707C55.5678 40.5031 55.6089 40.3429 55.7356 40.2264C55.8716 40.1096 56.0425 40.0569 56.2484 40.0684C56.5617 40.7486 56.9253 41.2682 57.3395 41.6273C57.7536 41.9864 58.3341 42.1623 59.0809 42.1549C59.6036 42.1459 60.007 41.7957 60.291 41.104C60.5847 40.4213 60.7797 39.588 60.8761 38.604C60.9728 37.6294 61.0047 36.671 60.9718 35.729C60.9549 35.2439 60.9271 34.848 60.8883 34.5411C60.2097 35.4334 59.3201 35.8987 58.2194 35.9371C57.268 35.9704 56.52 35.5435 55.9754 34.6567C55.4401 33.7695 55.0779 32.7595 54.889 31.6267C54.8664 31.5155 54.8515 31.3572 54.8444 31.152C54.8238 30.5644 55.0048 30.2639 55.3872 30.2505C55.4245 30.2492 55.484 30.4806 55.5656 30.9447C55.6939 31.678 55.843 32.3359 56.0127 32.9183C56.1825 33.5007 56.4484 34.0284 56.8105 34.5014C57.1815 34.9648 57.6562 35.1863 58.2345 35.1661C58.6916 35.1502 59.1527 34.9846 59.618 34.6696C60.0923 34.3448 60.4302 33.9921 60.6317 33.6115C60.607 32.9026 60.4915 32.2716 60.2854 31.7185C60.0883 31.1557 59.9845 30.8558 59.9739 30.8188C59.948 30.6142 59.9341 30.484 59.9322 30.428C59.9257 30.2415 59.9489 30.1052 60.002 30.0193C60.0643 29.9331 60.1561 29.8879 60.2774 29.8836C60.408 29.8791 60.5665 30.1397 60.753 30.6655C60.9394 31.1913 61.113 31.881 61.2735 32.7346C61.4341 33.5882 61.5539 34.4805 61.6332 35.4117C61.6687 35.8961 61.6906 36.2548 61.6988 36.488C61.7613 38.2789 61.5892 39.7699 61.1825 40.9608C60.7852 42.1514 60.0875 42.7641 59.0894 42.799Z" fill="#C8C9B9"/>
<path d="M66.381 35.9183C65.7841 35.9391 65.2297 35.8418 64.7178 35.6262C64.206 35.4106 63.7933 35.0934 63.4799 34.6748C63.1664 34.2561 62.9999 33.767 62.9803 33.2073C62.9585 32.5824 63.0548 31.9953 63.2691 31.4462C63.483 30.8877 63.8082 30.4374 64.2445 30.0953C64.6898 29.7435 65.2156 29.5571 65.8219 29.5359C66.4562 29.5138 66.9438 29.7022 67.2846 30.1012C67.625 30.4909 67.7967 30.9939 67.7995 31.6102C67.8188 32.1605 67.6142 32.5879 67.1859 32.8924C66.7669 33.1965 66.2217 33.3603 65.5501 33.3837C65.4475 33.3873 65.2932 33.3834 65.0874 33.3719C64.7503 33.3463 64.5106 33.3033 64.3684 33.2429C64.2262 33.1825 64.1517 33.0543 64.1449 32.8585C64.1426 32.7932 64.1596 32.7459 64.196 32.7166C64.232 32.678 64.3059 32.6567 64.4179 32.6528C64.5391 32.6486 64.7546 32.6691 65.0644 32.7143C65.3648 32.7598 65.6317 32.7785 65.8648 32.7704C66.723 32.7404 67.139 32.3523 67.113 31.6061C67.0973 31.1584 67.001 30.8069 66.824 30.5516C66.6563 30.2959 66.3673 30.1753 65.9568 30.1896C65.5091 30.2052 65.1123 30.3405 64.7663 30.5954C64.42 30.841 64.1555 31.1584 63.973 31.5477C63.7998 31.9366 63.7207 32.3456 63.7357 32.7747C63.7614 33.5116 63.9878 34.1107 64.4148 34.5721C64.8415 35.0241 65.484 35.2352 66.3421 35.2052C66.4447 35.2016 66.617 35.1863 66.8588 35.1591C66.9611 35.1462 67.086 35.1139 67.2337 35.062C67.3813 35.0102 67.4874 34.9738 67.552 34.9528C67.9482 34.7989 68.2396 34.7187 68.4262 34.7122C68.5661 34.7073 68.6747 34.7409 68.7519 34.8129C68.5311 35.1755 68.1904 35.4489 67.7299 35.633C67.2784 35.8076 66.8288 35.9027 66.381 35.9183Z" fill="#C8C9B9"/>
<path d="M70.8617 35.7618C70.4532 35.029 70.1194 34.1628 69.8604 33.1632C69.6107 32.1633 69.4729 31.2949 69.4472 30.558C69.4371 30.2689 69.4959 30.08 69.6235 29.9915C69.6965 29.9423 69.7517 29.917 69.789 29.9157C69.8543 29.9134 69.9027 29.9631 69.9343 30.0647C69.9752 30.166 70.019 30.3513 70.0658 30.6205L70.1533 31.1217C70.2383 30.6144 70.4204 30.2112 70.6994 29.9119C70.9875 29.603 71.3461 29.4411 71.7751 29.4261C72.2508 29.4095 72.6085 29.4904 72.8482 29.6688C73.0876 29.8379 73.2146 30.1323 73.2293 30.552C72.7551 30.3444 72.3268 30.2473 71.9444 30.2607C71.5806 30.2734 71.2715 30.3822 71.0172 30.5872C70.7629 30.7922 70.5911 31.0878 70.5018 31.4738C70.427 31.7379 70.3936 31.9865 70.4018 32.2197C70.4106 32.4716 70.4515 32.7083 70.5246 32.9299C70.6068 33.1418 70.728 33.4037 70.8883 33.7156C71.0396 34.0372 71.1566 34.3133 71.2394 34.5439C71.3315 34.7742 71.3869 35.0244 71.4057 35.2945C71.4112 35.4531 71.3594 35.5717 71.25 35.6502C71.1404 35.7194 71.0109 35.7566 70.8617 35.7618Z" fill="#C8C9B9"/>
<path d="M74.2539 33.9904C74.3809 33.8832 74.5051 33.8275 74.6263 33.8233C74.7382 33.8193 74.8466 33.8482 74.9515 33.91C75.0657 33.9713 75.1806 34.0514 75.2961 34.1501C75.4113 34.2394 75.5024 34.3063 75.5693 34.3507C75.7897 34.5111 76.0881 34.6314 76.4644 34.7116C76.8408 34.7919 77.2388 34.8247 77.6586 34.81C78.1343 34.7934 78.5556 34.69 78.9225 34.4997C79.2985 34.2998 79.481 34.046 79.4703 33.7382C79.4605 33.4583 79.3503 33.2427 79.1395 33.0913C78.9284 32.9306 78.677 32.8179 78.3853 32.7534C78.0935 32.6889 77.7086 32.6323 77.2306 32.5836C76.5844 32.5315 76.0681 32.4561 75.6818 32.3575C75.3048 32.2586 74.9999 32.0872 74.7673 31.8431C74.5343 31.5898 74.4097 31.2299 74.3934 30.7635C74.3758 30.2598 74.6006 29.8784 75.0679 29.6193C75.5348 29.3508 76.076 29.2058 76.6917 29.1844C77.2513 29.1648 77.7313 29.2695 78.1315 29.4983C78.5407 29.7175 78.7577 30.0461 78.7823 30.4842C78.8098 30.7354 78.7794 30.9372 78.6914 31.0897C78.603 31.2329 78.4935 31.3068 78.3629 31.3113C78.2883 31.3139 78.222 31.2882 78.1641 31.2342C78.1155 31.1799 78.0896 31.1061 78.0863 31.0128C78.0811 30.8635 78.1267 30.6985 78.2231 30.5177C78.1687 30.2955 78.0089 30.133 77.7438 30.0301C77.4881 29.927 77.183 29.8816 76.8285 29.894C76.3062 29.9122 75.8945 30.0247 75.5935 30.2313C75.2922 30.4286 75.1462 30.6579 75.1553 30.919C75.165 31.1989 75.2845 31.4095 75.5135 31.5509C75.7426 31.6923 76.0169 31.7902 76.3363 31.8444C76.6647 31.8889 77.1284 31.9288 77.7273 31.9639C78.2239 32.0119 78.6278 32.0772 78.9389 32.1597C79.2593 32.2419 79.5315 32.4145 79.7555 32.6776C79.9791 32.9312 80.0996 33.3053 80.1168 33.7996C80.1347 34.3126 79.9111 34.7267 79.4458 35.0418C78.9802 35.3476 78.4162 35.512 77.754 35.5351C76.9051 35.5648 76.1399 35.4468 75.4582 35.1811C74.7858 34.915 74.3844 34.5181 74.2539 33.9904Z" fill="#C8C9B9"/>
<path d="M88.6711 34.1453C88.5965 34.1479 88.5281 34.0616 88.466 33.8863C88.4038 33.711 88.3437 33.461 88.2857 33.1361L87.9612 31.4664L87.4614 31.596C87.0726 31.6936 86.7484 31.7703 86.4889 31.826C86.229 31.8725 85.9778 31.8999 85.7353 31.9084C85.614 31.9126 85.5338 31.8874 85.4945 31.8327C85.4549 31.7688 85.4335 31.6901 85.4302 31.5968C85.426 31.4756 85.4372 31.3958 85.4639 31.3575C85.4999 31.3189 85.5826 31.2787 85.7118 31.2368C85.9707 31.1624 86.3086 31.0759 86.7254 30.9773C87.1419 30.8693 87.5077 30.7818 87.8229 30.7148C87.7143 30.2797 87.6257 29.8812 87.557 29.5194C87.488 29.1482 87.4508 28.8833 87.4452 28.7248C87.4429 28.6595 87.4463 28.622 87.4553 28.6124C87.5547 28.5155 87.6743 28.4646 87.8142 28.4597C87.9261 28.4558 88.0297 28.4802 88.1249 28.5329L88.6305 30.5745C89.5456 30.5706 90.2468 30.5928 90.7341 30.6412C91.2214 30.6895 91.4674 30.779 91.4719 30.9096C91.4758 31.0215 91.4286 31.1399 91.3302 31.2647C91.2409 31.3799 91.1682 31.4385 91.1122 31.4405L88.8537 31.3512L89.0961 33.8783C89.074 34.0472 88.9323 34.1362 88.6711 34.1453Z" fill="#C8C9B9"/>
</g>
</svg>
