<svg xmlns="http://www.w3.org/2000/svg" viewBox="0 0 37.21 30.23"><title>quote</title><g id="Слой_2" data-name="Слой 2"><g id="Слой_1-2" data-name="Слой 1"><path d="M9.78,23.12a10.88,10.88,0,0,0,2.7-6.83,8,8,0,0,0-.35-2.52,7.14,7.14,0,0,1-4.45,1.58A7.66,7.66,0,0,1,2.2,13.27,7.34,7.34,0,0,1,0,7.68,7.38,7.38,0,0,1,2.23,2.2,7.46,7.46,0,0,1,7.68,0a7.94,7.94,0,0,1,7.09,3.81,14.26,14.26,0,0,1,2.05,7.91,19.53,19.53,0,0,1-3.08,10.81,21.64,21.64,0,0,1-9.29,7.71L3.34,28.07A16.28,16.28,0,0,0,9.78,23.12Zm20.39,0a10.88,10.88,0,0,0,2.7-6.83,8,8,0,0,0-.35-2.52,7,7,0,0,1-4.45,1.58,7.68,7.68,0,0,1-5.45-2.08,7.29,7.29,0,0,1-2.23-5.6,7.48,7.48,0,0,1,1.05-3.93A7.67,7.67,0,0,1,28.07,0a7.94,7.94,0,0,1,7.09,3.81,14.26,14.26,0,0,1,2.05,7.91,19.53,19.53,0,0,1-3.08,10.81,21.64,21.64,0,0,1-9.29,7.71l-1.11-2.17A16.28,16.28,0,0,0,30.18,23.12Z"/></g></g></svg>