<svg width="112" height="74" viewBox="0 0 112 74" fill="none" xmlns="http://www.w3.org/2000/svg">
<g opacity="0.9">
<path d="M111.936 11.4478C112.059 11.1254 112.002 10.7619 111.787 10.4923C111.572 10.2227 111.232 10.0881 110.89 10.1365C108.752 10.4455 106.384 9.6741 103.641 8.78189C98.1436 6.99332 91.3196 4.77861 81.688 9.40478C79.5126 8.33676 77.0938 7.68391 74.5285 7.56143L74.2581 7.54852L70.7598 3.46781C68.2321 0.516729 64.1928 -0.690829 60.4699 0.390835C58.5331 0.951148 56.8421 2.06812 55.5618 3.62682L51.5266 2.7122C45.7508 1.40359 39.8552 3.72033 36.5058 8.61509L34.1283 12.0902C31.8737 12.2645 29.6594 13.0584 27.7578 14.4702L27.6616 14.5416C23.655 17.5165 21.956 22.4507 22.9517 27.0511C19.6543 27.5958 9.76111 29.8412 0.33243 38.0959C0.0732282 38.3231 -0.0470201 38.6706 0.0168694 39.0098C0.0805159 39.349 0.318583 39.629 0.642646 39.7459C2.67399 40.4789 4.40435 42.2728 6.408 44.3502C10.4513 48.5419 15.8663 54.158 27.6261 54.1572C28.4664 54.1572 29.3421 54.1268 30.2495 54.0667C31.2576 55.6724 32.5629 57.1076 34.1339 58.3018L34.4995 58.5798C37.8686 61.1406 41.9439 62.5059 46.1341 62.5059C46.7186 62.5059 47.306 62.4794 47.8937 62.4256C51.3818 62.1071 54.674 60.8508 57.4618 58.8212C58.629 61.7454 62.3983 68.6762 73.166 73.9026C73.3 73.9679 73.4448 74 73.5894 74C73.7742 74 73.9584 73.9472 74.1185 73.8429C77.7016 71.5113 79.6331 67.9108 79.7036 63.43C79.73 61.745 79.4891 60.2423 79.2401 59.1565C80.7346 59.5057 82.2808 59.6905 83.8554 59.6905C84.3172 59.6905 84.7817 59.6749 85.2476 59.6432L105.788 58.2475C106.093 58.2268 106.371 58.0629 106.538 57.8055C106.704 57.5479 106.74 57.2269 106.634 56.9388C106.488 56.5424 103.09 47.49 95.1612 41.1636C97.5975 38.6367 98.5174 35.0462 97.5171 31.5302C100.39 29.2415 107.688 22.6054 111.936 11.4478ZM91.1777 20.6527C91.0499 20.2195 90.9061 19.7931 90.7477 19.3738L95.2926 17.7515L103.117 23.0729C101.999 24.4884 100.904 25.7086 99.9007 26.7353L91.1777 20.6527ZM97.5625 16.9411L109.304 12.7499C107.819 16.1612 106.059 19.0811 104.293 21.5184L97.5625 16.9411ZM106.509 11.6796L94.1173 16.1032L94.7205 8.69471C97.8645 8.95113 100.593 9.83799 103.041 10.6345C104.255 11.0295 105.402 11.4018 106.509 11.6796ZM92.7764 8.62239L92.1091 16.8199L89.9611 17.5867C88.5305 14.7576 86.3891 12.3471 83.7641 10.5977C87.1082 9.17321 90.0879 8.64333 92.7764 8.62239ZM74.4362 9.5073C82.6826 9.90057 89.2625 16.3815 89.9295 24.5008C89.3618 24.3791 88.7793 24.3026 88.1868 24.279L79.5151 23.9313L75.345 18.4509C76.7741 15.6924 76.4967 12.4625 74.5135 9.89302C74.4073 9.75544 74.2968 9.62394 74.1845 9.49513L74.4362 9.5073ZM43.0767 17.5521C44.2908 21.9306 47.188 25.5241 51.0777 27.627C48.0741 27.1074 44.3836 25.9176 41.0026 23.2884C39.6803 22.2603 39.1129 20.6035 39.5215 18.9649C39.8467 17.66 40.9098 16.1427 42.9173 15.7974C44.3948 15.5431 45.7785 15.3084 46.8216 15.1321C46.1674 16.5474 45.9063 18.0815 45.8302 19.4312C45.4724 18.6535 45.1741 17.8402 44.9404 17.0001C44.7927 16.4692 44.2335 16.1641 43.7037 16.3355C43.2069 16.496 42.9368 17.0475 43.0767 17.5521ZM41.2482 25.8567C46.62 29.4112 52.3103 29.9615 55.3097 29.9615C56.2056 29.9615 56.86 29.9126 57.1955 29.8804C63.5927 32.279 68.3065 37.7109 69.7801 44.4203L57.5276 48.5144C53.5796 49.834 49.3966 49.1653 46.0532 46.6801C42.7096 44.1951 40.8566 40.3776 40.9691 36.2068L41.2482 25.8567ZM58.3344 20.453C61.5441 19.347 63.4426 17.1474 64.3878 15.7199L67.1594 19.1495C64.3079 22.111 62.3922 25.827 61.6233 29.879C60.0545 28.9237 58.3511 28.1525 56.5367 27.6L54.0032 26.8285C53.3556 26.6313 52.7364 26.3839 52.1451 26.0939L52.0773 20.032C53.4241 20.8088 55.5269 21.4207 58.3344 20.453ZM54.389 18.8612C54.9516 17.2864 55.7372 15.9817 56.6271 14.9086L57.7717 18.5851C57.7484 18.5933 57.7263 18.6023 57.7028 18.6104C56.3759 19.0679 55.2701 19.0633 54.389 18.8612ZM62.0754 15.558C61.4727 16.2785 60.6402 17.0802 59.5456 17.7445L58.2634 13.626C59.9675 13.2549 61.4083 14.7189 62.0754 15.558ZM60.2379 11.8486C61.4458 11.1286 62.5652 10.6854 63.3459 10.4302C63.4866 11.3521 64.0643 12.1379 64.9347 12.547L68.1464 14.0575C68.8392 14.3833 69.2954 15.0062 69.3979 15.7667C69.5004 16.5269 69.2257 17.2489 68.6439 17.7474C68.6208 17.7671 68.5992 17.7883 68.5764 17.808L65.002 13.3849C64.7884 13.1207 64.452 12.9887 64.1158 13.0343C63.7795 13.0798 63.4907 13.2997 63.3549 13.6114C63.3522 13.6172 63.3066 13.7193 63.2157 13.8895C62.4602 13.0577 61.4324 12.239 60.2379 11.8486ZM69.0265 46.7256C69.0265 46.7256 71.3375 45.9427 71.3967 45.9074L71.3979 45.9094C71.5872 45.7961 71.8235 45.8081 72.005 45.934C73.449 46.9365 75.0241 47.65 76.6558 48.0754L74.8703 55.3838C71.9205 53.7192 69.4339 51.2346 67.7519 48.1243L69.0265 46.7256ZM71.5692 43.5388C70.3604 38.5391 67.5017 34.2156 63.5407 31.1878C64.081 30.0273 65.5281 27.4841 68.6522 25.1357C68.7887 25.0332 68.9527 24.9153 69.1399 24.7806C70.2727 23.9671 72.3206 22.496 74.1996 20.1581L78.2465 25.4768C80.1153 27.9331 80.8524 31.0814 80.2681 34.1143C79.6841 37.1474 77.8311 39.7944 75.1847 41.3769L71.5692 43.5388ZM72.9765 11.0852C74.2931 12.791 75.095 15.7579 73.0219 18.5054C71.2252 20.8864 69.2114 22.3329 68.0082 23.1971C67.8077 23.341 67.6323 23.4671 67.4864 23.577C66.4821 24.3318 65.6336 25.1043 64.9189 25.8545C66.0674 23.3315 67.7584 21.0696 69.9073 19.2277C70.9845 18.3045 71.5141 16.9131 71.3243 15.5054C71.1344 14.0977 70.2552 12.8972 68.9721 12.2938L65.7604 10.7833C65.2796 10.5571 65.2519 10.1005 65.2548 9.96583C65.258 9.83117 65.3058 9.37629 65.7963 9.17199C66.6415 8.81988 67.4506 8.6689 68.2081 8.6689C70.305 8.6689 72.0055 9.82751 72.9765 11.0852ZM55.2441 9.64927C55.3109 7.95469 55.8961 6.35387 56.9349 5.02066C57.9782 3.6855 59.387 2.73168 61.0097 2.2622C64.0045 1.39238 67.2524 2.3635 69.2855 4.73697L71.5864 7.42092L71.42 7.41289C69.4686 6.52505 67.2094 6.47367 65.05 7.37319C64.58 7.56898 64.1877 7.87433 63.8947 8.25348C63.2203 8.4081 60.7143 9.07605 58.1332 10.8992C57.0969 10.7034 56.123 10.5941 55.2089 10.5666L55.2441 9.64927ZM56.1332 12.5709C54.7371 13.9501 53.4637 15.745 52.6118 18.0639C52.1339 17.7225 51.8784 17.4096 51.8514 17.3755C51.5961 17.0444 51.1578 16.9136 50.7633 17.0509C50.3688 17.1883 50.106 17.5633 50.1108 17.9819L50.1881 24.9C49.3624 24.2868 48.6132 23.5775 47.9486 22.7887C47.8485 22.2214 47.0113 16.965 49.771 14.2267C51.1622 12.8463 53.2973 12.2923 56.1332 12.5709ZM38.1084 9.71696C41.0045 5.48381 46.1035 3.48023 51.0978 4.6123L54.4145 5.36401C53.7418 6.65874 53.3609 8.08643 53.3022 9.57354L53.2613 10.6469C51.2645 10.8858 49.6352 11.6178 48.3977 12.8487C48.3812 12.8653 48.3664 12.8828 48.3499 12.8994C48.08 12.9444 45.5166 13.3735 42.5889 13.8771C42.3238 13.9226 42.0668 13.9869 41.8157 14.0631C40.1708 12.9839 38.3321 12.3417 36.457 12.1306L38.1084 9.71696ZM28.8181 16.1071L28.9143 16.0358C32.0955 13.674 36.3144 13.3598 39.778 15.1267C38.7385 15.9537 37.9789 17.1172 37.6359 18.4925C37.0886 20.687 37.7425 22.9032 39.3427 24.4202L39.2127 29.2405L34.514 32.597C32.9715 33.6989 31.6672 35.0306 30.6311 36.5302L26.4052 30.27C23.2855 25.649 24.3456 19.4278 28.8181 16.1071ZM13.7534 31.9042L20.3986 38.0409L3.64958 37.8809C7.14018 35.1655 10.6468 33.2499 13.7534 31.9042ZM7.80531 42.996C6.67401 41.8233 5.62214 40.7375 4.52776 39.8375L15.5556 39.9429L10.8382 45.9926C9.73366 44.9943 8.74422 43.9696 7.80531 42.996ZM12.323 47.2513L18.0038 39.9663L24.993 40.033L19.2449 50.9914C16.4301 50.079 14.2028 48.738 12.323 47.2513ZM21.1619 51.5227L27.1777 40.054L28.8028 40.0696C28.1965 41.7322 27.8639 43.5113 27.8367 45.3532C27.8013 47.7574 28.2866 50.0714 29.2321 52.1709C26.1171 52.3083 23.4599 52.0533 21.1619 51.5227ZM23.2969 38.0686L15.7453 31.0948C19.3732 29.7168 22.2344 29.1463 23.5243 28.9378C23.852 29.7733 24.2725 30.5866 24.7955 31.3614L29.3623 38.1266L23.2969 38.0686ZM47.7175 60.486C43.4046 60.8793 39.1262 59.6518 35.674 57.028L35.3084 56.7499C31.7284 54.0287 29.7133 49.8854 29.7799 45.3822C29.8465 40.879 31.983 36.7973 35.6419 34.1835L39.1471 31.6795L39.032 35.9504C38.902 40.7728 41.0614 45.4146 44.9365 48.2751C47.4875 50.1581 50.4582 51.128 53.4931 51.128C55.042 51.128 56.6076 50.8752 58.1427 50.3624L65.2412 47.9906L58.9397 54.9036C56.0173 58.1094 52.0319 60.092 47.7175 60.486ZM61.4115 61.9286C60.0205 59.9381 59.3432 58.3239 59.0605 57.5262C59.5167 57.1129 59.9556 56.6771 60.3745 56.2178L64.7219 51.4485L65.7407 54.2549L61.4115 61.9286ZM62.6961 63.609L66.6147 56.6627L71.8221 71.0061C67.5578 68.6151 64.6534 65.9601 62.6961 63.609ZM74.0616 71.478L70.9714 62.9659L77.4135 66.179C76.8881 68.3129 75.7682 70.0863 74.0616 71.478ZM77.7597 63.4595C77.7548 63.6964 77.7437 63.9297 77.7274 64.1598L70.0067 60.309L66.2008 49.8257L66.3757 49.6338C68.8268 53.8343 72.6303 56.9379 77.0574 58.516C77.3093 59.335 77.8041 61.2404 77.7597 63.4595ZM81.2678 57.5566C79.6666 57.3287 78.1175 56.8926 76.6556 56.2663L78.5679 48.4384C79.141 48.5076 79.7174 48.5436 80.2944 48.5436C80.8609 48.5436 81.4276 48.5091 81.9919 48.4421L82.719 48.745L81.2678 57.5566ZM90.8308 57.3116L85.1164 57.7C84.4763 57.7434 83.8399 57.7512 83.209 57.729L84.5621 49.5133L91.3307 52.3339L90.8308 57.3116ZM92.7975 57.178L93.2056 53.115L101.532 56.5845L92.7975 57.178ZM103.847 55.4396L90.3804 49.8279L97.7112 46.2556C100.763 49.6531 102.769 53.228 103.847 55.4396ZM96.3005 44.7771L87.9842 48.8295L85.218 47.6768C86.3818 47.2555 87.509 46.682 88.5709 45.9515L93.5751 42.5076C93.6018 42.489 93.6273 42.4698 93.6538 42.4511C94.6005 43.1874 95.4816 43.9703 96.3005 44.7771ZM92.4752 40.9016L87.4709 44.3456C83.2338 47.2613 77.8044 47.3234 73.5505 44.6224L76.1804 43.0501C79.302 41.1836 81.4876 38.0613 82.1766 34.4837C82.7416 31.5502 82.2572 28.5258 80.8495 25.9344L88.2538 26.2312C92.5196 26.4024 94.8685 29.344 95.6441 32.0401C96.4198 34.736 95.9947 38.4797 92.4752 40.9016ZM96.7621 29.6372C95.701 27.6229 93.9757 26.0517 91.9147 25.1432C91.8926 24.5678 91.8435 23.9992 91.7697 23.4384L98.4839 28.1204C97.8348 28.7262 97.2508 29.2332 96.7621 29.6372Z" fill="#C8C9B9"/>
</g>
</svg>
