<svg width="12" height="19" viewBox="0 0 12 19" fill="none" xmlns="http://www.w3.org/2000/svg">
<path d="M5.13234 5.30055C5.13234 5.87272 4.68009 6.3369 4.1227 6.3369C3.56528 6.3369 3.11307 5.87269 3.11307 5.30055C3.11307 4.72837 3.56532 4.26419 4.1227 4.26419C4.68009 4.26419 5.13234 4.72841 5.13234 5.30055ZM7.71953 4.26419C7.16211 4.26419 6.7099 4.72841 6.7099 5.30055C6.7099 5.87269 7.16215 6.3369 7.71953 6.3369C8.27695 6.3369 8.72917 5.87269 8.72917 5.30055C8.72917 4.72841 8.27695 4.26419 7.71953 4.26419ZM12 6.1534C12 8.54999 10.5697 9.2625 9.0552 9.81308V11.5511C9.0552 11.9074 8.77125 12.1988 8.42418 12.1988H3.58632C3.23925 12.1988 2.95531 11.9074 2.95531 11.5511V9.82386C1.44084 9.30566 0 8.61478 0 6.1534C0 2.76362 2.69237 0 5.99475 0C9.30763 0 12 2.76362 12 6.1534ZM10.738 6.1534C10.738 3.47614 8.61352 1.29543 6.00525 1.29543C3.39698 1.29543 1.27254 3.4761 1.27254 6.1534C1.27254 7.76193 1.9246 8.11819 3.78614 8.73352C4.04907 8.81988 4.22784 9.06818 4.22784 9.34886V10.9034H7.80367V9.34886C7.80367 9.06818 7.97193 8.83066 8.23487 8.73352C9.95969 8.11819 10.738 7.78353 10.738 6.1534ZM11.2743 19C11.5057 19 11.7266 18.8704 11.8317 18.6437C11.9895 18.3199 11.8633 17.9312 11.5583 17.7693L7.33041 15.5562L11.5267 13.2676C11.8317 13.0949 11.9474 12.7063 11.7897 12.3932C11.6214 12.0801 11.2428 11.9614 10.9378 12.1233L5.96324 14.8438L1.22002 12.3608C0.904495 12.1989 0.525877 12.3284 0.36815 12.6415C0.210387 12.9654 0.336605 13.354 0.641592 13.5159L4.59603 15.5886L0.683677 17.7261C0.378689 17.8988 0.262975 18.2875 0.420738 18.6005C0.536417 18.8165 0.757271 18.946 0.978161 18.946C1.08334 18.946 1.17797 18.9244 1.27264 18.8704L5.96328 16.3011L10.9799 18.9244C11.085 18.9784 11.1797 19 11.2743 19Z" fill="#C8C9B9"/>
</svg>
