<svg width="80" height="104" viewBox="0 0 80 104" fill="none" xmlns="http://www.w3.org/2000/svg">
<g opacity="0.5">
<path d="M26.4482 66.6004C25.3276 66.3271 24.3242 66.0017 23.439 65.7142C20.821 64.8645 18.5599 64.1305 16.558 66.2625C14.0507 68.9331 14.5866 73.5273 17.7526 76.5035C19.263 77.9233 21.1473 78.7743 23.0584 78.8999C23.2231 78.9108 23.386 78.9162 23.5478 78.9162C25.3256 78.9162 26.9074 78.2656 28.0417 77.0574C29.6511 75.3429 30.3629 72.1505 29.6616 69.7895C29.1648 68.1169 28.0236 66.9841 26.4482 66.6004ZM26.7438 75.8376C25.8776 76.7603 24.6109 77.2171 23.175 77.1222C21.6748 77.0238 20.182 76.3427 18.9716 75.2051C16.5213 72.9017 16.0207 69.4374 17.8559 67.4828C18.4148 66.8875 18.9654 66.6423 19.6777 66.6423C20.4707 66.6423 21.4634 66.9465 22.8895 67.4093C23.8045 67.7062 24.8415 68.0429 26.0269 68.3318C26.9884 68.5661 27.637 69.2273 27.9549 70.2975C28.4837 72.0777 27.9404 74.5632 26.7438 75.8376Z" fill="white"/>
<path d="M9.98171 71.2311C9.86909 70.8643 9.53455 70.6106 9.15105 70.6017C8.76243 70.5952 8.42167 70.8309 8.29235 71.1921L6.83157 75.2761C6.67354 75.7177 6.88499 76.2064 7.31501 76.3934L10.4456 77.7547C10.5597 77.8044 10.6804 77.8286 10.8001 77.8286C11.0151 77.8286 11.2273 77.7507 11.3937 77.6019C11.6528 77.3703 11.7537 77.0088 11.6517 76.6763L9.98171 71.2311ZM8.7887 75.0914L9.06558 74.3175L9.38209 75.3496L8.7887 75.0914Z" fill="white"/>
<path d="M77.8815 32.9478C76.9565 32.4745 75.9026 32.3903 74.9141 32.7101C73.9256 33.03 73.1208 33.7159 72.648 34.6415C72.4241 35.0796 72.5977 35.6164 73.0356 35.8402C73.4736 36.0645 74.0096 35.8905 74.2335 35.4524C74.4899 34.9507 74.9261 34.5787 75.4621 34.4052C75.9978 34.232 76.5694 34.2776 77.0709 34.534C77.5723 34.7905 77.9441 35.2271 78.1174 35.7634C78.2908 36.2997 78.245 36.8714 77.9888 37.3732C77.555 38.2224 76.8167 38.8515 75.9099 39.1451C75.0031 39.4384 74.0365 39.3613 73.188 38.927L65.559 35.0248C66.8312 34.6438 67.8235 33.8509 68.3846 32.7524C68.8994 31.7451 68.9884 30.5683 68.6581 29.4097C69.7902 28.9992 70.6911 28.2375 71.2057 27.2302C71.7206 26.2228 71.8098 25.046 71.4793 23.8874C72.6113 23.477 73.5123 22.7153 74.0269 21.7079C74.5417 20.7006 74.6308 19.524 74.3005 18.3654C75.4325 17.9549 76.3335 17.1935 76.8479 16.1859C77.4849 14.9389 77.4786 13.4719 76.8301 12.0554C76.6226 11.6024 76.3542 11.1734 76.0375 10.7734C76.1336 10.7489 76.2298 10.7233 76.325 10.6926C77.4893 10.3157 78.4375 9.50772 78.9944 8.4173C80.0267 6.39681 78.8077 1.59927 78.5528 0.658065C78.4871 0.415526 78.3222 0.212186 78.0987 0.0977095C77.8753 -0.0167669 77.6138 -0.0312435 77.3789 0.0573978C76.4673 0.401941 71.8672 2.2231 70.8352 4.24358C70.2102 5.46719 70.1897 6.84291 70.662 8.0291C68.5738 7.93957 66.6681 8.834 65.7993 10.5344C65.2845 11.5418 65.1953 12.7186 65.5258 13.8772C64.3938 14.2877 63.4928 15.0494 62.9782 16.0567C62.4636 17.0641 62.3743 18.2407 62.7046 19.3992C61.5726 19.8097 60.6718 20.5712 60.157 21.5787C59.6424 22.5861 59.5532 23.7629 59.8837 24.9213C58.7516 25.3317 57.8507 26.0932 57.3361 27.1006C56.7749 28.199 56.7137 29.4683 57.1502 30.7233L49.4392 26.7792C48.1672 26.1284 46.718 26.0126 45.3587 26.4525C43.9994 26.8925 42.8928 27.8358 42.2426 29.1086C41.7697 30.0342 41.6855 31.0888 42.0051 32.0778C42.325 33.0669 43.0105 33.8723 43.9353 34.3453C44.4916 34.6299 45.0943 34.7738 45.7015 34.7738C46.1041 34.7738 46.5085 34.7106 46.9025 34.583C47.891 34.2629 48.6958 33.5769 49.1686 32.6513C49.3925 32.2132 49.2189 31.6767 48.7811 31.4527C48.3433 31.2284 47.8068 31.4023 47.5832 31.8404C47.3267 32.3422 46.8905 32.7141 46.3545 32.8876C45.819 33.0611 45.2474 33.0155 44.7457 32.7589C44.2443 32.5023 43.8726 32.0658 43.6992 31.5295C43.5258 30.9932 43.5716 30.4215 43.8281 29.9197C44.2619 29.0705 45.0001 28.4413 45.9067 28.1478C46.8137 27.8545 47.7801 27.9315 48.6286 28.3658L55.6945 31.9801C52.4663 36.9017 49.5483 42.3914 46.6094 49.1041C43.8545 48.3446 41.0015 47.9555 38.1145 47.9555C36.3572 47.9555 34.5978 48.0992 32.8844 48.3825C32.8757 48.3836 32.8672 48.3849 32.8588 48.3863C23.3885 49.9546 15.2048 55.6515 10.4065 64.0145C9.68289 65.2724 8.68151 66.3038 7.50986 66.9981C7.11456 67.2328 6.14591 67.527 5.62819 67.6573C5.35287 67.7268 5.12695 67.9232 5.02011 68.1865C4.99029 68.2602 4.28383 70.0145 3.7946 72.1526C3.10417 75.1702 3.19965 77.4043 4.07416 78.7869C4.07883 78.7947 4.08351 78.8023 4.0884 78.8101C4.43629 79.3501 4.52065 80.0127 4.32011 80.6276L0.475525 92.3985L0.422329 92.5397C-0.261429 94.4034 -0.109631 96.4713 0.839217 98.2136C1.7874 99.9546 3.44026 101.203 5.37379 101.638L14.1013 103.604C15.2861 103.871 16.4777 104 17.6578 104C23.4028 104 28.8513 100.944 31.6597 95.8664C31.8385 95.5434 32.0067 95.2134 32.1637 94.878C38.139 100.648 45.9508 103.809 54.3097 103.809H54.362C57.9562 103.804 61.4166 102.058 63.6183 99.1383C67.8232 93.5626 70.0457 86.9134 70.0457 79.9092C70.0457 69.7141 65.1726 60.1375 56.9708 54.1221C57.5987 53.0515 58.199 52.0036 58.7697 50.9754C58.8957 50.7482 58.9164 50.4771 58.8262 50.2335L57.9613 47.8965L59.3186 48.3689C59.7357 48.5143 60.1959 48.3315 60.4003 47.9397C62.3955 44.1143 64.031 40.5061 65.3916 36.9404L72.3774 40.5137C75.0027 41.8567 78.2318 40.8119 79.574 38.1843C80.5504 36.2734 79.791 33.9244 77.8815 32.9478ZM72.4203 5.05494C72.874 4.16719 75.1683 2.91931 77.0747 2.10216C77.5292 4.12688 77.8624 6.71886 77.4088 7.60638C77.0682 8.27298 76.4886 8.76696 75.7766 8.99747C75.0648 9.22799 74.3058 9.16696 73.6394 8.8262C72.2643 8.12309 71.7174 6.43111 72.4203 5.05494ZM67.3848 11.346C67.9009 10.3353 69.0403 9.79146 70.3506 9.79146C71.1477 9.79146 72.0079 9.99279 72.8292 10.4131C73.9154 10.9687 74.7614 11.8155 75.211 12.7979C75.6279 13.7086 75.6462 14.624 75.262 15.3754C74.8529 16.1765 74.0385 16.7088 72.969 16.8741C72.6866 16.9177 72.4422 17.0943 72.3122 17.3489C72.1822 17.6037 72.1822 17.9053 72.3122 18.1598C72.8047 19.1242 72.8504 20.0963 72.4413 20.8975C72.123 21.5204 71.5576 21.9779 70.8202 22.2295C70.8202 22.2295 67.4237 13.899 67.3848 13.8068C67.0166 12.9349 67.0146 12.0705 67.3848 11.346ZM64.5636 16.8681C64.8819 16.2451 65.4472 15.7877 66.1846 15.536C66.1846 15.536 69.479 23.6585 69.491 23.6819C69.9836 24.646 70.0294 25.6182 69.6201 26.4195C69.3029 27.0402 68.7407 27.497 68.0071 27.7491L64.7301 19.6663L64.7172 19.6716C64.7083 19.6498 64.7036 19.6269 64.6929 19.6057C64.2003 18.6416 64.1545 17.6692 64.5636 16.8681ZM57.2891 32.7965L59.7118 34.0357L47.0134 59.0079C46.5201 58.2896 45.9169 57.6542 45.2221 57.1199C49.2271 46.9019 52.9784 39.3373 57.2891 32.7965ZM4.20548 87.4381L4.81 85.6855L6.67831 86.286L6.05999 88.0784C5.97452 88.3263 5.79757 88.5261 5.56209 88.6408C5.3266 88.7557 5.06062 88.7715 4.81245 88.686C4.56472 88.6005 4.36529 88.4236 4.25066 88.1878C4.13603 87.9521 4.12001 87.6858 4.20548 87.4381ZM14.041 88.6521L13.4476 90.684C13.2958 91.2036 12.7507 91.5027 12.2307 91.351C11.7115 91.1991 11.4125 90.653 11.5643 90.1334L12.1724 88.0517L14.041 88.6521ZM12.6719 86.3406L13.2145 84.4827C13.2882 84.231 13.4551 84.023 13.6848 83.8971C13.8313 83.817 13.9922 83.776 14.1547 83.776C14.2471 83.776 14.3401 83.7893 14.4314 83.8158C14.6829 83.8893 14.8905 84.0566 15.0165 84.2864C15.1425 84.5163 15.1712 84.7815 15.0978 85.0332L14.5406 86.941L12.6719 86.3406ZM11.5401 83.827L10.881 85.7651L9.01271 85.1646L9.68266 83.1945C9.82155 82.7864 10.2037 82.529 10.6121 82.529C10.7168 82.529 10.8229 82.5459 10.9273 82.5813C11.4395 82.7559 11.7144 83.3145 11.5401 83.827ZM10.3074 87.4521L9.64505 89.4C9.47077 89.9125 8.9121 90.1869 8.4004 90.0132C7.88825 89.8388 7.61336 89.28 7.78764 88.7677L8.43912 86.8517L10.3074 87.4521ZM7.9795 82.5136L7.25946 84.6011L5.39115 84.0007L6.12499 81.8731C6.26499 81.4671 6.64604 81.2116 7.05313 81.2116C7.15908 81.2116 7.26659 81.229 7.37231 81.2655C7.62004 81.351 7.81969 81.5281 7.93432 81.7637C8.04895 81.9996 8.06497 82.2657 7.9795 82.5136ZM68.2653 79.9092C68.2653 86.523 66.167 92.8011 62.1971 98.0653C60.3293 100.542 57.3995 102.023 54.3609 102.027H54.3097C46.1714 102.027 38.5828 98.8519 32.8775 93.0764C33.3046 91.7822 33.5652 90.4403 33.6569 89.0711C35.8106 88.9223 37.7386 87.7174 38.8359 85.8194C39.9919 83.8199 40.052 81.4058 38.9966 79.3617C37.4572 76.3807 37.508 72.8482 39.1319 69.9123C39.37 69.4818 39.2145 68.9397 38.784 68.7014C38.3538 68.4629 37.812 68.6188 37.5738 69.0495C35.6608 72.5074 35.6014 76.6682 37.4143 80.1795C38.1895 81.6813 38.1448 83.4559 37.2941 84.9272C36.4636 86.3635 35.052 87.2294 33.4214 87.3029C33.3409 87.3067 33.2599 87.3085 33.1784 87.3085C30.2595 87.3085 27.8848 84.9323 27.8848 82.0116C27.8848 81.5196 27.4862 81.1207 26.9945 81.1207C26.5028 81.1207 26.1042 81.5196 26.1042 82.0116C26.1042 85.4706 28.5971 88.3559 31.879 88.9684C31.7848 90.351 31.499 91.7022 31.0218 92.9944C31.0214 92.9956 30.458 94.3601 30.1017 95.0036C27.0969 100.437 20.6773 103.259 14.4921 101.866L5.76463 99.8996C4.33101 99.5771 3.1055 98.6519 2.40282 97.3613C1.69926 96.0695 1.58663 94.5359 2.08743 93.1711L2.14486 93.0189C2.15109 93.0029 2.1571 92.9864 2.16244 92.9699L3.21568 89.7452C3.50147 90.0216 3.84446 90.237 4.23152 90.3704C4.52688 90.4724 4.83137 90.5232 5.13496 90.5232C5.50956 90.5232 5.88149 90.4419 6.23294 90.2884C6.54388 90.9303 7.1001 91.4528 7.82659 91.7002C8.12039 91.8002 8.41954 91.8479 8.71379 91.8479C9.16161 91.8479 9.59764 91.7365 9.98693 91.5345C10.3066 92.249 10.9233 92.825 11.7313 93.0613C11.9888 93.1365 12.2488 93.1726 12.5045 93.1726C13.0928 93.1726 13.6583 92.982 14.1238 92.6457C14.1894 92.831 14.2735 93.0111 14.3795 93.1822C14.7679 93.8096 15.3771 94.2483 16.0951 94.4172C16.3068 94.4671 16.5185 94.4909 16.7272 94.4909C17.6133 94.4909 18.4402 94.059 18.9548 93.3568C19.3432 93.8902 19.9016 94.2646 20.5502 94.4172C20.7619 94.4668 20.9754 94.4913 21.1875 94.4913C21.6949 94.4913 22.194 94.3503 22.6362 94.0762C23.2632 93.6875 23.7017 93.078 23.8704 92.3595L24.4104 90.0615C24.9479 89.9967 25.4837 89.9112 26.0156 89.8022C26.4975 89.7038 26.8082 89.2332 26.7096 88.751C26.611 88.2686 26.1398 87.9582 25.6591 88.0566C25.3895 88.1116 25.1186 88.1584 24.8473 88.2011L25.2168 86.6288C25.5651 85.1455 24.6428 83.655 23.1604 83.3065C22.0495 83.045 20.9346 83.4982 20.2989 84.366C19.9235 83.8519 19.3717 83.4633 18.7053 83.3065C17.9837 83.1368 17.2614 83.2702 16.6689 83.6212C16.348 82.9123 15.7337 82.341 14.9304 82.106C14.302 81.9221 13.6441 81.9666 13.0516 82.2265C12.734 81.6221 12.1962 81.1321 11.5005 80.8951C10.8303 80.6671 10.1334 80.715 9.52886 80.9735C9.20524 80.3154 8.64612 79.8212 7.95279 79.5816C7.35807 79.3762 6.74086 79.3896 6.18508 79.5746C6.12521 78.9709 5.92867 78.3824 5.59258 77.8566C5.5888 77.8504 5.58457 77.8437 5.58279 77.8406C4.39422 75.962 5.73125 71.3488 6.51227 69.2642C7.04134 69.1125 7.89915 68.8395 8.41798 68.5315C9.85227 67.6818 11.0738 66.4277 11.9507 64.9034C16.4784 57.0117 24.1961 51.6348 33.1272 50.1486C33.1357 50.1475 33.1441 50.1462 33.1526 50.1446C34.7774 49.8749 36.4469 49.7379 38.1149 49.7379C40.758 49.7379 43.3709 50.0809 45.8974 50.7546C45.6122 51.4244 45.3269 52.1014 45.0404 52.7958C43.2269 52.3048 41.2936 52.6958 39.4259 53.9393C37.991 54.8945 37.0915 56.0239 37.0539 56.0716C36.8109 56.3796 36.7977 56.8103 37.0216 57.1326C37.2455 57.4546 37.6542 57.5923 38.027 57.4711C39.7144 56.9237 41.5141 57.0662 43.0947 57.8731C44.6752 58.68 45.8466 60.0542 46.3939 61.7428C47.0879 63.8842 48.5736 65.627 50.5775 66.6502C51.7807 67.2644 53.0837 67.5751 54.3967 67.5751C55.2703 67.5751 56.1486 67.4372 57.0037 67.1597C57.3723 67.0401 57.6212 66.6958 57.6194 66.3081C57.6174 65.9203 57.3652 65.5785 56.9955 65.4624C56.9588 65.4508 53.4957 64.3366 52.2355 61.778C53.6375 59.6103 54.8988 57.5905 56.0578 55.6609C63.7196 61.3464 68.2653 70.3399 68.2653 79.9092ZM18.1796 89.8352L17.6823 91.9515C17.5586 92.4782 17.0297 92.8071 16.5029 92.6824C15.9763 92.5586 15.6486 92.0292 15.7724 91.5025L16.2752 89.3622C16.9031 89.5501 17.5381 89.71 18.1796 89.8352ZM16.6834 87.6254L17.119 85.7715C17.2251 85.3198 17.6289 85.0145 18.0738 85.0145C18.148 85.0145 18.2232 85.023 18.2982 85.0408C18.8248 85.1646 19.1524 85.694 19.0287 86.2207L18.5875 88.0982C17.9459 87.9755 17.3102 87.8174 16.6834 87.6254ZM22.0168 90.2058C22.1942 90.2058 22.3718 90.2031 22.5492 90.1985L22.1374 91.9515C22.0776 92.2067 21.9218 92.4234 21.6992 92.5613C21.4764 92.6996 21.2133 92.7423 20.9582 92.6822C20.7031 92.6223 20.4866 92.4664 20.3488 92.2437C20.2108 92.0207 20.1678 91.7575 20.2279 91.5022L20.5456 90.1504C21.0348 90.1864 21.5258 90.2058 22.0168 90.2058ZM20.958 88.3927L21.5736 85.7715C21.6798 85.3198 22.0838 85.0145 22.5287 85.0145C22.6028 85.0145 22.6781 85.023 22.7531 85.0408C23.2797 85.1646 23.6073 85.694 23.4836 86.2207L22.9723 88.3971C22.301 88.4323 21.6286 88.4316 20.958 88.3927ZM44.36 54.4656C44.1334 55.0284 43.9064 55.5981 43.6783 56.1776C42.666 55.6974 41.5889 55.425 40.4978 55.3709C41.5453 54.6929 42.9052 54.1555 44.36 54.4656ZM50.4638 64.484C50.6972 64.1315 50.9276 63.7822 51.154 63.4373C51.8308 64.4072 52.718 65.1649 53.5734 65.7359C52.4434 65.5912 51.373 65.1542 50.4638 64.484ZM59.1754 46.4326L56.7634 45.5932C56.438 45.48 56.0763 45.5647 55.8352 45.811C55.5939 46.0571 55.5165 46.4206 55.636 46.744L57.0142 50.4676C54.8701 54.3052 52.3561 58.39 49.1646 63.2206C48.7027 62.6277 48.3328 61.9479 48.088 61.1925C48.0641 61.1188 48.037 61.0468 48.0112 60.974L61.2973 34.8464L63.7995 36.1262C62.531 39.4725 61.0119 42.8584 59.1754 46.4326ZM64.6813 33.4095C63.6228 33.6202 62.4409 33.43 61.3547 32.8745C60.2685 32.3188 59.4227 31.472 58.9731 30.4896C58.5562 29.579 58.538 28.6636 58.9219 27.9121C59.3312 27.111 60.1456 26.579 61.2151 26.4135C61.4976 26.3698 61.742 26.1932 61.872 25.9384C62.0019 25.6839 62.0019 25.3821 61.872 25.1275C61.3794 24.1634 61.3335 23.1912 61.7426 22.3901C62.062 21.7649 62.6305 21.3066 63.3719 21.0554C63.3719 21.0554 66.6458 29.1558 66.6701 29.2037C67.1626 30.1678 67.2085 31.14 66.7992 31.9413C66.4154 32.693 65.6631 33.2144 64.6813 33.4095Z" fill="#C8C9B9"/>
</g>
</svg>
