<svg width="201" height="8" viewBox="0 0 201 8" fill="none" xmlns="http://www.w3.org/2000/svg">
<path d="M0.0794822 5.21757C5.81653 8.15558 13.5452 7.05089 20.0034 6.19886C29.0188 5.02366 37.5424 4.19514 46.6561 5.11767C50.5655 5.51137 54.729 6.29288 58.6794 6.19886C63.0697 6.05702 67.4229 5.55426 71.6533 4.70047C76.2183 3.87195 84.4141 1.31 88.7497 3.31373C91.3723 4.52419 93.1508 6.63369 96.1259 7.49159C102.42 9.30729 109.141 5.83455 114.362 3.74856C119.041 1.87998 124.811 3.03756 129.852 3.57815C134.63 4.11287 139.482 4.70047 144.325 4.61821C162.905 4.32441 182.132 4.85325 200.057 0.722398C202.204 0.228811 200.188 -0.194263 198.917 0.0936625C189.55 2.25604 179.649 2.88478 169.872 3.20796C160.635 3.52527 150.997 3.93071 141.785 3.49001C134.015 3.11394 124.918 0.587249 117.197 1.93874C114.124 2.47933 111.362 3.81319 108.674 4.94727C105.985 6.08134 102.781 7.37407 99.5272 6.78647C97.888 6.48679 96.3882 5.43498 95.1588 4.64759C93.5196 3.60166 91.6428 1.90936 89.2988 1.70957C86.0205 1.44515 82.4717 1.93874 79.3 2.44995C74.5628 3.21384 69.9322 4.27152 65.1376 4.87676C60.3431 5.48199 55.4748 4.82387 50.7049 4.28915C44.0704 3.52779 37.3201 3.43484 30.6498 4.01298C22.2983 4.76511 10.6029 8.29073 3.04636 4.41255C2.27595 4.01885 -0.502419 4.92376 0.0794822 5.21757Z" fill="#C8C9B9"/>
</svg>
