<svg width="202" height="41" viewBox="0 0 202 41" fill="none" xmlns="http://www.w3.org/2000/svg">
<path d="M185.311 9.98585C178.661 8.22007 171.594 6.76508 164.23 5.64546C153.979 2.93546 142.214 1.63555 130.781 0.871756C114.067 -0.22544 97.0769 -0.287264 80.3227 0.688152C64.376 1.6025 47.6981 3.18149 32.9244 6.34315C21.9504 8.68961 13.212 13.1255 7.6527 18.3362C5.95997 19.4375 4.64306 20.6383 3.74251 21.9017C2.59442 20.7096 1.83903 19.4537 1.4984 18.1709C1.37939 17.7156 -0.0656778 17.6899 0.00232553 18.1709C0.288501 19.9487 1.31057 21.6899 3.01997 23.3118C2.88655 23.7231 2.81557 24.1377 2.80746 24.553C1.69815 26.9271 1.51143 29.3644 2.25494 31.7649C2.45044 32.4076 4.73706 32.2643 4.58405 31.6107C4.33341 30.5605 4.26522 29.5037 4.38004 28.4491C5.85824 30.2803 8.26264 31.9462 11.4184 33.3256C22.5624 38.147 39.9373 39.2009 54.0564 40.1042C71.3074 41.1466 88.7877 41.2798 106.113 40.5008C110.754 40.3062 115.463 40.0859 120.147 39.8215C135.318 39.1008 150.233 37.5942 164.57 35.3342C177.372 33.3146 194.619 30.9277 200.434 24.2372C205.959 17.8845 195.903 12.8134 185.311 9.98585ZM161.111 34.3831C139.074 37.6605 115.828 39.1543 92.5378 38.7896C77.7715 38.5663 63.1202 37.5801 48.8967 35.852C35.5681 34.2252 21.7804 31.7943 11.5969 27.0757C9.4455 26.0917 7.55257 25.008 5.95261 23.8443C7.06136 21.9734 8.62862 20.159 10.6278 18.4316C12.3049 17.4405 14.1218 16.495 16.0681 15.6005C20.7662 13.4192 26.1653 11.5407 32.0999 10.0226C45.2585 6.61121 60.0407 5.08363 74.7125 4.30148C103.061 2.78858 132.957 2.58662 160.567 6.47535C162.131 6.69567 163.686 6.93068 165.233 7.18039C172.034 9.12659 177.984 11.7485 181.512 15.2406C188.006 21.6484 181.002 28.5555 169.611 32.2093C166.95 33.0527 164.103 33.7809 161.111 34.3831ZM59.5052 3.74332C74.1971 2.10504 89.3075 1.27106 104.481 1.261C118.711 1.261 133.382 1.76407 147.212 3.60378C129.651 2.02112 111.417 1.85587 93.8469 2.28551C69.0257 2.8914 41.1018 4.43734 20.7433 11.9321C30.9693 7.01514 45.9046 5.25254 59.5052 3.74332ZM34.99 37.262C22.5964 35.8152 5.90161 32.5875 5.23858 25.2544V25.1736C9.8798 28.4784 16.9351 31.0489 23.9395 32.8849C37.7187 36.4615 53.5464 38.1544 68.8472 39.245C72.355 39.4898 75.8713 39.6954 79.3962 39.8619C64.4025 39.7901 49.487 38.9169 34.99 37.262ZM195.563 25.7317C191.177 28.6474 184.249 30.2557 177.576 31.5593C175.938 31.88 174.295 32.1897 172.646 32.4883C178.525 30.4369 182.848 27.6717 185.056 24.5493C189.307 18.4463 182.829 12.5086 173.36 8.6382C175.848 9.12781 178.298 9.66883 180.713 10.2613C186.374 11.6346 192.248 13.2871 196.064 15.8391C200.697 18.9347 200.128 22.7059 195.571 25.7354L195.563 25.7317Z" fill="#C8C9B9"/>
</svg>
